<?xml version="1.0" encoding="utf-8"?>
<!-- Generator: Adobe Illustrator 16.0.0, SVG Export Plug-In . SVG Version: 6.00 Build 0)  -->
<!DOCTYPE svg PUBLIC "-//W3C//DTD SVG 1.1//EN" "http://www.w3.org/Graphics/SVG/1.1/DTD/svg11.dtd">
<svg version="1.1" id="圖層_1" xmlns="http://www.w3.org/2000/svg" xmlns:xlink="http://www.w3.org/1999/xlink" x="0px" y="0px"
	 width="67.5px" height="18.386px" viewBox="0 0 67.5 18.386" enable-background="new 0 0 67.5 18.386" xml:space="preserve">
<g>
	<g>
		<path fill="#323B3E" d="M48.84,9.194c0,5.074-4.113,9.191-9.191,9.191c-5.077,0-9.193-4.117-9.193-9.191
			C30.456,4.115,34.572,0,39.649,0C44.727,0,48.84,4.115,48.84,9.194z"/>
		<polygon display="none" fill="#20505C" points="39.594,16.39 38.159,10.996 37.442,13.694 36.725,10.995 36.221,12.891 
			33.326,12.891 33.326,12.336 35.794,12.336 36.726,8.835 37.442,11.532 38.159,8.835 39.594,14.23 40.311,11.532 41.028,14.23 
			41.532,12.336 43.981,12.288 43.981,12.843 41.959,12.891 41.028,16.39 40.311,13.693 		"/>
		<polygon fill="#31BDEB" points="40.826,15.994 38.344,6.66 37.102,11.329 35.862,6.659 34.991,9.938 0,9.915 0,8.956 34.25,8.979 
			35.862,2.921 37.102,7.588 38.344,2.921 40.826,12.258 42.068,7.588 43.308,12.258 44.18,8.979 67.5,8.979 67.5,9.938 
			44.92,9.938 43.308,15.994 42.068,11.328 		"/>
	</g>
	<g>
		<g>
			<g>
				<path fill="#323B3E" d="M9.837,4.468c-1.303,0-2.356,1.121-2.356,2.506c0,1.381,1.053,2.502,2.356,2.502
					c1.3,0,2.355-1.121,2.355-2.502C12.192,5.589,11.137,4.468,9.837,4.468z M9.837,8.14c-0.882,0-1.597-0.735-1.597-1.642
					c0-0.904,0.715-1.643,1.597-1.643c0.88,0,1.595,0.738,1.595,1.643C11.432,7.404,10.717,8.14,9.837,8.14z"/>
			</g>
		</g>
		<g>
			<g>
				<path fill="#323B3E" d="M14.377,4.468c-1.301,0-2.355,1.121-2.355,2.506c0,1.381,1.054,2.502,2.355,2.502
					c1.301,0,2.355-1.121,2.355-2.502C16.733,5.589,15.678,4.468,14.377,4.468z M14.377,8.14c-0.881,0-1.596-0.735-1.596-1.642
					c0-0.904,0.715-1.643,1.596-1.643s1.596,0.738,1.596,1.643C15.974,7.404,15.259,8.14,14.377,8.14z"/>
			</g>
		</g>
		<g>
			<g>
				<path fill="#323B3E" d="M20.548,8.2c-0.581,0.212-1.255,0.066-1.702-0.428c-0.549-0.606-0.56-1.521-0.069-2.146l2.145,2.369
					l0.522,0.577c0.082-0.095,0.155-0.192,0.221-0.298c0.6-0.934,0.542-2.178-0.208-3.004c-0.887-0.981-2.403-1.011-3.386-0.068
					c-0.984,0.941-1.063,2.5-0.176,3.48c0.849,0.937,2.272,1.002,3.256,0.179L20.548,8.2z M21.181,5.532
					c0.57,0.632,0.56,1.592,0.008,2.219l-2.157-2.383C19.677,4.845,20.611,4.905,21.181,5.532z"/>
			</g>
		</g>
		<g>
			<g>
				<path fill="#323B3E" d="M23.208,5.374V4.761h-1.324v4.715h1.324V8.76V6.372c0.18-0.703,0.797-1.225,1.538-1.225V4.761
					C24.158,4.761,23.622,4.993,23.208,5.374z"/>
			</g>
		</g>
		<g>
			<g>
				<g>
					<polyline fill="#323B3E" points="26.041,5.374 26.041,4.761 24.716,4.761 24.716,9.476 26.041,9.476 26.041,8.76 26.041,6.372 
											"/>
				</g>
				<g>
					<polyline fill="#323B3E" points="29.466,5.374 29.466,4.761 28.143,4.761 28.143,9.476 29.466,9.476 29.466,8.76 29.466,6.372 
											"/>
					<polygon fill="#323B3E" points="26.041,4.761 24.716,4.761 28.143,9.476 29.466,9.476 					"/>
				</g>
			</g>
		</g>
		<g>
			<g>
				<polygon fill="#323B3E" points="16.109,9.476 17.435,9.476 17.435,2.689 16.109,1.326 				"/>
				<polygon fill="#323B3E" points="16.109,1.302 16.109,1.313 16.113,1.302 				"/>
				<polygon opacity="0.5" fill="#323B3E" points="16.105,1.323 16.109,1.326 16.109,1.313 				"/>
				<rect x="17.435" y="1.302" opacity="0.5" fill="#323B3E" width="0.003" height="1.388"/>
				<polygon fill="#323B3E" points="16.113,1.302 16.109,1.313 16.109,1.326 17.435,2.689 17.435,1.302 				"/>
			</g>
		</g>
		<g>
			<g>
				<polygon fill="#323B3E" points="6.265,1.323 3.82,7.74 1.368,1.302 0.044,1.302 0.044,1.302 0.044,1.303 0.044,9.476 
					1.368,9.476 1.368,4.777 3.159,9.476 4.482,9.476 6.273,4.777 6.273,9.476 7.597,9.476 7.597,2.694 				"/>
				<polygon fill="#323B3E" points="7.597,1.302 6.273,1.302 6.265,1.323 7.597,2.694 				"/>
			</g>
		</g>
		<g>
			<g>
				<polygon fill="#323B3E" points="56.162,6.026 54.371,1.326 53.046,1.326 51.255,6.026 51.255,1.326 49.93,1.326 49.93,9.506 
					49.93,9.506 51.255,9.506 53.707,3.067 56.154,9.483 56.162,9.506 57.485,9.506 57.485,8.111 57.485,2.723 56.162,1.358 				"/>
				<polygon opacity="0.5" fill="#323B3E" points="56.154,1.352 56.162,1.358 56.162,1.326 				"/>
				<polygon fill="#323B3E" points="56.162,1.326 56.162,1.358 57.485,2.723 57.485,1.326 				"/>
			</g>
		</g>
		<g>
			<g>
				<path fill="#323B3E" d="M60.596,8.268c-0.58,0.212-1.255,0.066-1.702-0.428c-0.547-0.604-0.56-1.519-0.068-2.146l2.146,2.37
					l0.521,0.577c0.081-0.095,0.155-0.194,0.221-0.298c0.597-0.935,0.543-2.178-0.208-3.006c-0.89-0.979-2.404-1.01-3.389-0.066
					c-0.981,0.941-1.061,2.501-0.175,3.479c0.85,0.938,2.273,1.003,3.256,0.181L60.596,8.268z M61.23,5.601
					c0.571,0.63,0.561,1.594,0.008,2.217l-2.156-2.382C59.725,4.913,60.661,4.972,61.23,5.601z"/>
			</g>
		</g>
		<g>
			<g>
				<g>
					<path fill="#323B3E" d="M62.79,7.001c0,1.383,1.055,2.505,2.354,2.505c1.302,0,2.356-1.122,2.356-2.505
						s-1.055-2.504-2.356-2.504C63.844,4.497,62.79,5.618,62.79,7.001z M63.549,6.525c0-0.906,0.714-1.642,1.595-1.642
						s1.597,0.735,1.597,1.642c0,0.908-0.716,1.643-1.597,1.643S63.549,7.434,63.549,6.525z"/>
				</g>
				<g>
					<polygon fill="#323B3E" points="62.082,9.506 63.407,9.506 63.407,2.716 62.082,1.355 					"/>
					<polygon fill="#323B3E" points="62.082,1.326 62.082,1.341 62.088,1.326 					"/>
					<polygon opacity="0.5" fill="#323B3E" points="62.08,1.352 62.082,1.355 62.082,1.341 					"/>
					<polygon opacity="0.5" fill="#323B3E" points="63.411,1.326 63.407,1.326 63.407,2.716 63.411,2.723 					"/>
					<polygon fill="#323B3E" points="62.088,1.326 62.082,1.341 62.082,1.355 63.407,2.716 63.407,1.326 					"/>
				</g>
			</g>
		</g>
		<rect x="21.885" y="13.737" fill="#323B3E" width="1.367" height="0.318"/>
		<rect x="49.887" y="13.737" fill="#323B3E" width="1.366" height="0.318"/>
		<rect y="10.314" fill="#323B3E" width="1.368" height="0.318"/>
		<rect y="10.885" fill="#323B3E" width="1.368" height="0.319"/>
		<rect y="11.454" fill="#323B3E" width="1.368" height="0.32"/>
		<rect x="3.093" y="10.314" fill="#323B3E" width="1.367" height="0.318"/>
		<rect x="3.093" y="10.885" fill="#323B3E" width="1.367" height="0.319"/>
		<rect x="3.093" y="11.454" fill="#323B3E" width="1.367" height="0.32"/>
		<rect x="3.093" y="12.024" fill="#323B3E" width="1.367" height="0.321"/>
		<rect x="6.247" y="10.314" fill="#323B3E" width="1.368" height="0.318"/>
		<rect x="6.247" y="10.885" fill="#323B3E" width="1.368" height="0.319"/>
		<rect x="16.088" y="10.314" fill="#323B3E" width="1.368" height="0.318"/>
		<rect x="16.088" y="10.885" fill="#323B3E" width="1.368" height="0.319"/>
		<rect x="16.088" y="11.454" fill="#323B3E" width="1.368" height="0.32"/>
		<rect x="21.885" y="10.314" fill="#323B3E" width="1.367" height="0.318"/>
		<rect x="21.885" y="10.885" fill="#323B3E" width="1.367" height="0.319"/>
		<rect x="21.885" y="11.454" fill="#323B3E" width="1.367" height="0.32"/>
		<rect x="21.885" y="12.024" fill="#323B3E" width="1.367" height="0.321"/>
		<rect x="21.885" y="12.595" fill="#323B3E" width="1.367" height="0.32"/>
		<rect x="21.885" y="13.166" fill="#323B3E" width="1.367" height="0.32"/>
		<rect x="24.694" y="10.314" fill="#323B3E" width="1.369" height="0.318"/>
		<rect x="28.133" y="10.314" fill="#323B3E" width="1.367" height="0.318"/>
		<rect x="28.133" y="10.884" fill="#323B3E" width="1.367" height="0.319"/>
		<rect x="28.133" y="11.454" fill="#323B3E" width="1.367" height="0.32"/>
		<rect x="28.133" y="12.024" fill="#323B3E" width="1.367" height="0.32"/>
		<rect x="49.887" y="10.314" fill="#323B3E" width="1.366" height="0.318"/>
		<rect x="49.887" y="10.884" fill="#323B3E" width="1.366" height="0.319"/>
		<rect x="49.887" y="11.454" fill="#323B3E" width="1.366" height="0.32"/>
		<rect x="49.887" y="12.024" fill="#323B3E" width="1.366" height="0.32"/>
		<rect x="49.887" y="12.595" fill="#323B3E" width="1.366" height="0.32"/>
		<rect x="49.887" y="13.166" fill="#323B3E" width="1.366" height="0.32"/>
		<rect x="56.073" y="10.312" fill="#323B3E" width="1.368" height="0.32"/>
		<rect x="56.073" y="10.883" fill="#323B3E" width="1.368" height="0.32"/>
		<rect x="56.073" y="11.452" fill="#323B3E" width="1.368" height="0.32"/>
		<rect x="56.073" y="12.023" fill="#323B3E" width="1.368" height="0.321"/>
		<rect x="62.016" y="10.311" fill="#323B3E" width="1.368" height="0.321"/>
		<rect x="62.016" y="10.882" fill="#323B3E" width="1.368" height="0.319"/>
		<rect x="62.016" y="11.453" fill="#323B3E" width="1.368" height="0.321"/>
		<rect x="62.016" y="12.024" fill="#323B3E" width="1.368" height="0.32"/>
		<rect x="62.016" y="12.594" fill="#323B3E" width="1.368" height="0.322"/>
	</g>
</g>
</svg>
