<?xml version="1.0" encoding="utf-8"?>
<!-- Generator: Adobe Illustrator 16.0.0, SVG Export Plug-In . SVG Version: 6.00 Build 0)  -->
<!DOCTYPE svg PUBLIC "-//W3C//DTD SVG 1.1//EN" "http://www.w3.org/Graphics/SVG/1.1/DTD/svg11.dtd">
<svg version="1.1" id="圖層_1" xmlns="http://www.w3.org/2000/svg" xmlns:xlink="http://www.w3.org/1999/xlink" x="0px" y="0px"
	 width="675px" height="183.859px" viewBox="0 0 675 183.859" enable-background="new 0 0 675 183.859" xml:space="preserve">
<g>
	<path fill="#323B3E" d="M488.4,91.949c0,50.74-41.13,91.91-91.909,91.91c-50.771,0-91.931-41.17-91.931-91.91
		c0-50.79,41.16-91.939,91.93-91.939C447.27,0.01,488.4,41.159,488.4,91.949z"/>
	<polygon display="none" fill="#20505C" points="395.94,163.909 381.59,109.97 374.42,136.949 367.25,109.96 362.21,128.92 
		333.26,128.92 333.26,123.369 357.94,123.369 367.26,88.36 374.42,115.329 381.59,88.36 395.94,142.31 403.11,115.329 
		410.28,142.31 415.32,123.369 439.81,122.89 439.81,128.44 419.59,128.92 410.28,163.909 403.11,136.94 	"/>
	<polygon fill="#31BDEB" points="408.26,159.949 383.44,66.61 371.02,113.3 358.62,66.6 349.91,99.39 0,99.159 0,89.57 342.5,89.8 
		358.62,29.22 371.02,75.89 383.44,29.22 408.26,122.59 420.68,75.89 433.079,122.59 441.8,89.8 675,89.8 675,99.39 449.199,99.39 
		433.079,159.949 420.68,113.289 	"/>
</g>
<g>
	<g>
		<g>
			<path fill="#323B3E" d="M98.37,44.68c-13.03,0-23.561,11.21-23.561,25.061c0,13.81,10.53,25.02,23.561,25.02
				c13,0,23.55-11.21,23.55-25.02C121.92,55.89,111.37,44.68,98.37,44.68z M98.37,81.4c-8.82,0-15.971-7.35-15.971-16.42
				c0-9.04,7.15-16.43,15.971-16.43c8.8,0,15.949,7.38,15.949,16.43C114.32,74.04,107.17,81.4,98.37,81.4z"/>
		</g>
	</g>
	<g>
		<g>
			<path fill="#323B3E" d="M143.77,44.68c-13.01,0-23.55,11.21-23.55,25.061c0,13.81,10.54,25.02,23.55,25.02
				s23.55-11.21,23.55-25.02C167.33,55.89,156.78,44.68,143.77,44.68z M143.77,81.4c-8.81,0-15.96-7.35-15.96-16.42
				c0-9.04,7.15-16.43,15.96-16.43c8.811,0,15.96,7.38,15.96,16.43C159.74,74.04,152.59,81.4,143.77,81.4z"/>
		</g>
	</g>
	<g>
		<g>
			<path fill="#323B3E" d="M205.48,82c-5.81,2.12-12.55,0.66-17.02-4.28c-5.49-6.06-5.601-15.21-0.69-21.46l21.45,23.69l5.22,5.77
				c0.82-0.95,1.551-1.92,2.21-2.979c6-9.341,5.42-21.78-2.08-30.04C205.7,42.89,190.54,42.59,180.71,52.02
				c-9.84,9.41-10.63,25-1.76,34.8c8.489,9.37,22.72,10.021,32.56,1.79L205.48,82z M211.81,55.32c5.7,6.32,5.601,15.921,0.08,22.19
				l-21.57-23.83C196.77,48.45,206.11,49.05,211.81,55.32z"/>
		</g>
	</g>
	<g>
		<g>
			<path fill="#323B3E" d="M232.08,53.74V47.61h-13.24v47.15h13.24V87.6V63.72c1.8-7.03,7.97-12.25,15.38-12.25v-3.86
				C241.58,47.61,236.22,49.93,232.08,53.74z"/>
		</g>
	</g>
	<g>
		<g>
			<g>
				<polyline fill="#323B3E" points="260.41,53.74 260.41,47.61 247.16,47.61 247.16,94.76 260.41,94.76 260.41,87.6 260.41,63.72 
									"/>
			</g>
			<g>
				<polyline fill="#323B3E" points="294.66,53.74 294.66,47.61 281.43,47.61 281.43,94.76 294.66,94.76 294.66,87.6 294.66,63.72 
									"/>
				<polygon fill="#323B3E" points="260.41,47.61 247.16,47.61 281.43,94.76 294.66,94.76 				"/>
			</g>
		</g>
	</g>
	<g>
		<g>
			<polygon fill="#323B3E" points="161.09,94.76 174.35,94.76 174.35,26.89 161.09,13.26 			"/>
			<polygon fill="#323B3E" points="161.09,13.02 161.09,13.13 161.13,13.02 			"/>
			<polygon opacity="0.5" fill="#323B3E" enable-background="new    " points="161.05,13.23 161.09,13.26 161.09,13.13 			"/>
			<rect x="174.35" y="13.02" opacity="0.5" fill="#323B3E" enable-background="new    " width="0.03" height="13.88"/>
			<polygon fill="#323B3E" points="161.13,13.02 161.09,13.13 161.09,13.26 174.35,26.89 174.35,13.02 			"/>
		</g>
	</g>
	<g>
		<g>
			<polygon fill="#323B3E" points="62.65,13.23 38.2,77.4 13.68,13.02 0.44,13.02 0.44,13.02 0.44,13.03 0.44,94.76 13.68,94.76 
				13.68,47.77 31.59,94.76 44.82,94.76 62.73,47.77 62.73,94.76 75.97,94.76 75.97,26.94 			"/>
			<polygon fill="#323B3E" points="75.97,13.02 62.73,13.02 62.65,13.23 75.97,26.94 			"/>
		</g>
	</g>
	<g>
		<g>
			<polygon fill="#323B3E" points="561.619,60.26 543.709,13.26 530.46,13.26 512.55,60.26 512.55,13.26 499.3,13.26 499.3,95.06 
				499.3,95.06 512.55,95.06 537.07,30.67 561.539,94.83 561.619,95.06 574.85,95.06 574.85,81.11 574.85,27.23 561.619,13.58 			
				"/>
			<polygon opacity="0.5" fill="#323B3E" enable-background="new    " points="561.539,13.52 561.619,13.58 561.619,13.26 			"/>
			<polygon fill="#323B3E" points="561.619,13.26 561.619,13.58 574.85,27.23 574.85,13.26 			"/>
		</g>
	</g>
	<g>
		<g>
			<path fill="#323B3E" d="M605.96,82.68c-5.801,2.12-12.551,0.66-17.021-4.28c-5.47-6.04-5.6-15.189-0.68-21.46l21.46,23.7
				l5.21,5.771c0.81-0.95,1.55-1.94,2.21-2.98c5.97-9.35,5.43-21.78-2.08-30.06c-8.9-9.79-24.04-10.101-33.89-0.66
				c-9.811,9.41-10.61,25.01-1.75,34.79c8.5,9.38,22.729,10.029,32.56,1.81L605.96,82.68z M612.3,56.01
				c5.71,6.3,5.609,15.94,0.08,22.17L590.82,54.36C597.25,49.13,606.61,49.72,612.3,56.01z"/>
		</g>
	</g>
	<g>
		<g>
			<g>
				<path fill="#323B3E" d="M627.9,70.01c0,13.83,10.55,25.05,23.54,25.05c13.02,0,23.561-11.22,23.561-25.05
					s-10.551-25.04-23.561-25.04C638.44,44.97,627.9,56.18,627.9,70.01z M635.49,65.25c0-9.061,7.141-16.42,15.95-16.42
					s15.97,7.35,15.97,16.42c0,9.08-7.16,16.43-15.97,16.43S635.49,74.34,635.49,65.25z"/>
			</g>
			<g>
				<polygon fill="#323B3E" points="620.82,95.06 634.07,95.06 634.07,27.16 620.82,13.55 				"/>
				<polygon fill="#323B3E" points="620.82,13.26 620.82,13.41 620.88,13.26 				"/>
				<polygon opacity="0.5" fill="#323B3E" enable-background="new    " points="620.8,13.52 620.82,13.55 620.82,13.41 				"/>
				<polygon opacity="0.5" fill="#323B3E" enable-background="new    " points="634.11,13.26 634.07,13.26 634.07,27.16 
					634.11,27.23 				"/>
				<polygon fill="#323B3E" points="620.88,13.26 620.82,13.41 620.82,13.55 634.07,27.16 634.07,13.26 				"/>
			</g>
		</g>
	</g>
</g>
<rect x="246.95" y="136.999" fill="#323B3E" width="13.67" height="3.18"/>
<rect x="246.95" y="102.769" fill="#323B3E" width="13.67" height="3.18"/>
<rect x="246.95" y="108.479" fill="#323B3E" width="13.67" height="3.19"/>
<rect x="246.95" y="114.169" fill="#323B3E" width="13.67" height="3.2"/>
<rect x="246.95" y="119.869" fill="#323B3E" width="13.67" height="3.21"/>
<rect x="246.95" y="125.579" fill="#323B3E" width="13.67" height="3.199"/>
<rect x="246.95" y="131.289" fill="#323B3E" width="13.67" height="3.199"/>
<rect x="281.21" y="136.999" fill="#323B3E" width="13.67" height="3.18"/>
<rect x="281.21" y="102.769" fill="#323B3E" width="13.67" height="3.18"/>
<rect x="281.21" y="108.479" fill="#323B3E" width="13.67" height="3.19"/>
<rect x="281.21" y="114.169" fill="#323B3E" width="13.67" height="3.2"/>
<rect x="281.21" y="119.869" fill="#323B3E" width="13.67" height="3.21"/>
<rect x="281.21" y="125.579" fill="#323B3E" width="13.67" height="3.199"/>
<rect x="281.21" y="131.289" fill="#323B3E" width="13.67" height="3.199"/>
<rect x="498.869" y="136.999" fill="#323B3E" width="13.66" height="3.18"/>
<rect x="498.869" y="102.769" fill="#323B3E" width="13.66" height="3.18"/>
<rect x="498.869" y="108.469" fill="#323B3E" width="13.66" height="3.189"/>
<rect x="498.869" y="114.169" fill="#323B3E" width="13.66" height="3.2"/>
<rect x="498.869" y="119.869" fill="#323B3E" width="13.66" height="3.199"/>
<rect x="498.869" y="125.579" fill="#323B3E" width="13.66" height="3.199"/>
<rect x="498.869" y="131.289" fill="#323B3E" width="13.66" height="3.199"/>
<rect x="-0.15" y="136.999" fill="#323B3E" width="13.67" height="3.18"/>
<rect x="-0.15" y="102.769" fill="#323B3E" width="13.67" height="3.18"/>
<rect x="-0.15" y="108.479" fill="#323B3E" width="13.67" height="3.19"/>
<rect x="-0.15" y="114.169" fill="#323B3E" width="13.67" height="3.2"/>
<rect x="-0.15" y="119.869" fill="#323B3E" width="13.67" height="3.21"/>
<rect x="-0.15" y="125.579" fill="#323B3E" width="13.67" height="3.199"/>
<rect x="-0.15" y="131.289" fill="#323B3E" width="13.67" height="3.199"/>
<rect x="31.22" y="136.999" fill="#323B3E" width="13.67" height="3.18"/>
<rect x="31.22" y="102.769" fill="#323B3E" width="13.67" height="3.18"/>
<rect x="31.22" y="108.479" fill="#323B3E" width="13.67" height="3.19"/>
<rect x="31.22" y="114.169" fill="#323B3E" width="13.67" height="3.2"/>
<rect x="31.22" y="119.869" fill="#323B3E" width="13.67" height="3.21"/>
<rect x="31.22" y="125.579" fill="#323B3E" width="13.67" height="3.199"/>
<rect x="31.22" y="131.289" fill="#323B3E" width="13.67" height="3.199"/>
<rect x="62.475" y="136.999" fill="#323B3E" width="13.67" height="3.18"/>
<rect x="62.475" y="102.769" fill="#323B3E" width="13.67" height="3.18"/>
<rect x="62.475" y="108.479" fill="#323B3E" width="13.67" height="3.19"/>
<rect x="62.475" y="114.169" fill="#323B3E" width="13.67" height="3.2"/>
<rect x="62.475" y="119.869" fill="#323B3E" width="13.67" height="3.21"/>
<rect x="62.475" y="125.579" fill="#323B3E" width="13.67" height="3.199"/>
<rect x="62.475" y="131.289" fill="#323B3E" width="13.67" height="3.199"/>
<rect x="160.885" y="136.999" fill="#323B3E" width="13.67" height="3.18"/>
<rect x="160.885" y="102.769" fill="#323B3E" width="13.67" height="3.18"/>
<rect x="160.885" y="108.479" fill="#323B3E" width="13.67" height="3.19"/>
<rect x="160.885" y="114.169" fill="#323B3E" width="13.67" height="3.2"/>
<rect x="160.885" y="119.869" fill="#323B3E" width="13.67" height="3.21"/>
<rect x="160.885" y="125.579" fill="#323B3E" width="13.67" height="3.199"/>
<rect x="160.885" y="131.289" fill="#323B3E" width="13.67" height="3.199"/>
<rect x="561.4" y="136.999" fill="#323B3E" width="13.67" height="3.18"/>
<rect x="561.4" y="102.769" fill="#323B3E" width="13.67" height="3.18"/>
<rect x="561.4" y="108.479" fill="#323B3E" width="13.67" height="3.19"/>
<rect x="561.4" y="114.169" fill="#323B3E" width="13.67" height="3.2"/>
<rect x="561.4" y="119.869" fill="#323B3E" width="13.67" height="3.21"/>
<rect x="561.4" y="125.579" fill="#323B3E" width="13.67" height="3.199"/>
<rect x="561.4" y="131.289" fill="#323B3E" width="13.67" height="3.199"/>
<rect x="620.484" y="136.999" fill="#323B3E" width="13.67" height="3.18"/>
<rect x="620.484" y="102.769" fill="#323B3E" width="13.67" height="3.18"/>
<rect x="620.484" y="108.479" fill="#323B3E" width="13.67" height="3.19"/>
<rect x="620.484" y="114.169" fill="#323B3E" width="13.67" height="3.2"/>
<rect x="620.484" y="119.869" fill="#323B3E" width="13.67" height="3.21"/>
<rect x="620.484" y="125.579" fill="#323B3E" width="13.67" height="3.199"/>
<rect x="620.484" y="131.289" fill="#323B3E" width="13.67" height="3.199"/>
<g>
	<rect x="218.85" y="136.999" fill="#323B3E" width="13.67" height="3.18"/>
	<rect x="218.85" y="102.769" fill="#323B3E" width="13.67" height="3.18"/>
	<rect x="218.85" y="108.479" fill="#323B3E" width="13.67" height="3.19"/>
	<rect x="218.85" y="114.169" fill="#323B3E" width="13.67" height="3.2"/>
	<rect x="218.85" y="119.869" fill="#323B3E" width="13.67" height="3.21"/>
	<rect x="218.85" y="125.579" fill="#323B3E" width="13.67" height="3.199"/>
	<rect x="218.85" y="131.289" fill="#323B3E" width="13.67" height="3.199"/>
</g>
<rect x="218.85" y="136.999" fill="#323B3E" width="13.67" height="3.18"/>
<rect x="218.85" y="102.769" fill="#323B3E" width="13.67" height="3.18"/>
<rect x="218.85" y="108.479" fill="#323B3E" width="13.67" height="3.19"/>
<rect x="218.85" y="114.169" fill="#323B3E" width="13.67" height="3.2"/>
<rect x="218.85" y="119.869" fill="#323B3E" width="13.67" height="3.21"/>
<rect x="218.85" y="125.579" fill="#323B3E" width="13.67" height="3.199"/>
<rect x="218.85" y="131.289" fill="#323B3E" width="13.67" height="3.199"/>
</svg>
