<?xml version="1.0" encoding="utf-8"?>
<!-- Generator: Adobe Illustrator 15.0.0, SVG Export Plug-In . SVG Version: 6.00 Build 0)  -->
<!DOCTYPE svg PUBLIC "-//W3C//DTD SVG 1.1//EN" "http://www.w3.org/Graphics/SVG/1.1/DTD/svg11.dtd">
<svg version="1.1" id="圖層_1" xmlns="http://www.w3.org/2000/svg" xmlns:xlink="http://www.w3.org/1999/xlink" x="0px" y="0px"
	 width="200px" height="178px" viewBox="0 0 200 178" enable-background="new 0 0 200 178" xml:space="preserve">
<path opacity="0.2" fill="#FFFFFF" enable-background="new    " d="M168.2,137.4V68.2C168.2,30.5,137.7,0,100,0S31.8,30.5,31.8,68.2
	v69.2H168.2z"/>
<path fill="#A8FF73" d="M140,138.4c0,22.1-17.9,40-40,40l0,0c-22.1,0-40-17.9-40-40v-69c0-22.1,17.9-40,40-40l0,0
	c22.1,0,40,17.9,40,40V138.4z"/>
<path fill="#231815" d="M100.1,88.5c3.7,0,12.8,0.4,18.3,3.4C122,93.8,123.3,98.3,121.3,101.8c-1.899,3.601-6.399,4.9-9.899,2.9
	c-0.9-0.5-5-1.601-11.4-1.601c-6.4,0-10.5,1-11.4,1.5c-3.5,2.101-8,0.9-10-2.5c-2.1-3.5-0.9-8,2.5-10
	C86.5,88.8,96.2,88.5,100.1,88.5"/>
<path fill="none" d="M100.1,88.5c3.7,0,12.8,0.4,18.3,3.4C122,93.8,123.3,98.3,121.3,101.8c-1.899,3.601-6.399,4.9-9.899,2.9
	c-0.9-0.5-5-1.601-11.4-1.601c-6.4,0-10.5,1-11.4,1.5c-3.5,2.101-8,0.9-10-2.5c-2.1-3.5-0.9-8,2.5-10
	C86.5,88.8,96.2,88.5,100.1,88.5"/>
<path fill="#FFFFFF" d="M120,64.4c0,11-9,20-20,20s-20-9-20-20s8.9-20,20-20C111.1,44.4,120,53.3,120,64.4z"/>
<polygon fill="#FF8787" points="155,139.6 43.2,139.6 50.5,114.1 147.8,114.1 "/>
<path fill="#87B1FF" d="M190.8,154.7c0,13.1-12.3,23.7-27.399,23.7H36.6c-15.1,0-27.4-10.601-27.4-23.7l0,0
	C9.2,141.6,21.5,131,36.6,131h126.8C178.6,131,190.8,141.6,190.8,154.7L190.8,154.7z"/>
<path fill="#5D5DB3" d="M200,154.7c0,7.7-6.3,14-14,14H14c-7.7,0-14-6.3-14-14l0,0c0-7.7,6.3-14,14-14h172
	C193.7,140.8,200,147,200,154.7L200,154.7z"/>
<path fill="#FFFFFF" d="M34.5,154.7c0,2.7-2.2,4.8-4.8,4.8c-2.7,0-4.8-2.2-4.8-4.8c0-2.7,2.2-4.8,4.8-4.8
	C32.4,149.9,34.5,152.1,34.5,154.7z"/>
<path fill="#FFFFFF" d="M61.9,154.7c0,2.7-2.2,4.8-4.8,4.8c-2.7,0-4.8-2.2-4.8-4.8c0-2.7,2.2-4.8,4.8-4.8
	C59.8,149.9,61.9,152.1,61.9,154.7z"/>
<path fill="#FFFFFF" d="M89.3,154.7c0,2.7-2.2,4.8-4.8,4.8s-4.8-2.2-4.8-4.8c0-2.7,2.2-4.8,4.8-4.8S89.3,152.1,89.3,154.7z"/>
<path fill="#FFFFFF" d="M116.7,154.7c0,2.7-2.2,4.8-4.8,4.8c-2.7,0-4.801-2.2-4.801-4.8c0-2.7,2.2-4.8,4.801-4.8
	C114.6,149.9,116.7,152.1,116.7,154.7z"/>
<path fill="#FFFFFF" d="M144.1,154.7c0,2.7-2.199,4.8-4.8,4.8c-2.7,0-4.8-2.2-4.8-4.8c0-2.7,2.2-4.8,4.8-4.8
	C142,149.9,144.1,152.1,144.1,154.7z"/>
<path fill="#FFFFFF" d="M171.5,154.7c0,2.7-2.2,4.8-4.8,4.8c-2.7,0-4.8-2.2-4.8-4.8c0-2.7,2.199-4.8,4.8-4.8
	C169.4,149.9,171.5,152.1,171.5,154.7z"/>
<line fill="none" stroke="#231815" stroke-width="6" stroke-linecap="round" stroke-linejoin="round" stroke-miterlimit="10" x1="110.5" y1="58.7" x2="96.2" y2="73.1"/>
<line fill="none" stroke="#231815" stroke-width="6" stroke-linecap="round" stroke-linejoin="round" stroke-miterlimit="10" x1="110.5" y1="73.1" x2="96.2" y2="58.7"/>
<path fill="#FF7373" d="M97.5,96.3c-5.426,1.613-9.822,5.165-12.062,9.309c1.081-0.087,2.162-0.409,3.162-1.009
	c0.9-0.5,5-1.5,11.4-1.5c6.4,0,10.5,1.101,11.4,1.601c0.855,0.488,1.771,0.777,2.692,0.887
	C111.588,100.489,104.895,94.202,97.5,96.3z"/>
</svg>
