<?xml version="1.0" encoding="utf-8"?>
<!-- Generator: Adobe Illustrator 15.0.0, SVG Export Plug-In  -->
<!DOCTYPE svg PUBLIC "-//W3C//DTD SVG 1.1//EN" "http://www.w3.org/Graphics/SVG/1.1/DTD/svg11.dtd" [
	<!ENTITY ns_flows "http://ns.adobe.com/Flows/1.0/">
]>
<svg version="1.1"
	 xmlns="http://www.w3.org/2000/svg" xmlns:xlink="http://www.w3.org/1999/xlink" xmlns:a="http://ns.adobe.com/AdobeSVGViewerExtensions/3.0/"
	 x="0px" y="0px" width="64px" height="56px" viewBox="-0.782 -0.331 64 56"
	 overflow="visible" enable-background="new -0.782 -0.331 64 56" xml:space="preserve">
<defs>
</defs>
<path opacity="0.2" fill="#FFFFFF" d="M52.341,42.757V21.221C52.341,9.5,42.841,0,31.121,0S9.9,9.5,9.9,21.221v21.536H52.341z"/>
<path fill="#A8FF73" d="M43.558,43.058c0,6.869-5.568,12.436-12.437,12.436l0,0c-6.869,0-12.437-5.566-12.437-12.436v-21.46
	c0-6.868,5.568-12.437,12.437-12.437l0,0c6.869,0,12.437,5.568,12.437,12.437V43.058z"/>
<path fill="#231815" d="M31.05,33.463c-1.145-0.007-3.994-0.124-5.704-1.059c-1.105-0.603-1.512-1.985-0.911-3.091
	c0.603-1.105,1.986-1.512,3.09-0.91c0.292,0.158,1.542,0.488,3.555,0.501c2.002,0.014,3.283-0.308,3.56-0.456
	c1.079-0.647,2.475-0.295,3.12,0.786c0.648,1.079,0.292,2.479-0.788,3.127C35.277,33.378,32.266,33.471,31.05,33.463"/>
<path fill="#FF7373" d="M26.188,32.773c1.69,0.598,3.89,0.683,4.861,0.689c0.993,0.005,3.178-0.054,4.87-0.628
	c-0.505-1.291-2.481-2.266-4.852-2.279C28.699,30.541,26.71,31.489,26.188,32.773"/>
<circle fill="#FFFFFF" cx="31.121" cy="20.031" r="6.224"/>
<circle fill="#231815" cx="33.293" cy="20.031" r="4.052"/>
<polygon fill="#FF8787" points="48.25,43.442 13.458,43.442 15.722,35.521 45.985,35.521 "/>
<path fill="#87B1FF" d="M59.386,48.155c0,4.077-3.818,7.384-8.529,7.384H11.385c-4.71,0-8.53-3.307-8.53-7.384l0,0
	c0-4.078,3.819-7.385,8.53-7.385h39.472C55.567,40.771,59.386,44.077,59.386,48.155L59.386,48.155z"/>
<path fill="#5D5DB3" d="M62.241,48.157c0,2.4-1.947,4.348-4.35,4.348H4.349C1.947,52.505,0,50.558,0,48.157l0,0
	c0-2.402,1.947-4.35,4.349-4.35h53.542C60.294,43.808,62.241,45.755,62.241,48.157L62.241,48.157z"/>
<circle fill="#FFFFFF" cx="9.244" cy="48.155" r="1.505"/>
<circle fill="#FFFFFF" cx="17.771" cy="48.155" r="1.505"/>
<circle fill="#FFFFFF" cx="26.299" cy="48.155" r="1.505"/>
<circle fill="#FFFFFF" cx="34.826" cy="48.155" r="1.505"/>
<circle fill="#FFFFFF" cx="43.353" cy="48.155" r="1.505"/>
<circle fill="#FFFFFF" cx="51.881" cy="48.155" r="1.505"/>
</svg>
