<svg id="圖層_1" data-name="圖層 1" xmlns="http://www.w3.org/2000/svg" viewBox="0 0 60.8 95.3"><title>工作區域 1</title><path d="M50.8,60.3c0,3.4-3.4,6.2-7.6,6.2H22.7c-4.1,0-7.6-2.8-7.5-6.3V30.5c0-3.4,3.4-6.2,7.6-6.2H43.4c4.1,0,7.6,2.8,7.5,6.3Z" style="fill:#b1b3b4"/><path d="M16.5,21.3a2,2,0,0,1-2,2h0a2,2,0,0,1-2-2V18a1.9,1.9,0,0,1,2-1.9h0a2,2,0,0,1,2,2Z" style="fill:#d9dadb"/><path d="M52.7,21.4a1.9,1.9,0,0,1-2,1.9h0a2,2,0,0,1-2-2V18a1.9,1.9,0,0,1,2-1.9h0a1.9,1.9,0,0,1,1.9,2Z" style="fill:#d9dadb"/><circle cx="32.5" cy="18.6" r="18.6" style="fill:#fff"/><rect x="16.2" y="32.4" width="33.1" height="27.67" transform="translate(-13.6 78.9) rotate(-89.8)" style="fill:#fff"/><path d="M29.6,89.9a5.4,5.4,0,0,1-5.4,5.4h0a5.4,5.4,0,0,1-5.4-5.4V59.5a5.4,5.4,0,0,1,5.4-5.4h0a5.4,5.4,0,0,1,5.4,5.4Z" style="fill:#fff"/><path d="M46.5,89.9a5.4,5.4,0,0,1-5.4,5.4h0a5.4,5.4,0,0,1-5.4-5.4V59.5a5.4,5.4,0,0,1,5.4-5.4h0a5.4,5.4,0,0,1,5.4,5.4Z" style="fill:#fff"/><path d="M30.8,87c0-.6-.6-1-1.4-1H19.2c-.8,0-1.4.5-1.4,1h0c0,.6.6,1,1.4,1H29.4c.8,0,1.4-.5,1.4-1Z" style="fill:#00a0e9"/><path d="M47.6,87.1c0-.6-.6-1-1.4-1H36c-.8,0-1.4.5-1.4,1h0c0,.6.6,1,1.4,1H46.1c.8,0,1.4-.5,1.4-1Z" style="fill:#00a0e9"/><path d="M46.2,42.8a8.1,8.1,0,0,1,4.4,10.4L59,56.6a17.1,17.1,0,0,0-9.6-22.2L35.9,29.1l-3.3,8.4Z" style="fill:#fff"/><circle cx="54.5" cy="57.2" r="4.5" transform="translate(-18.7 86.8) rotate(-68.4)" style="fill:#fff"/><path d="M60.7,55.6c.1-.5-.3-.9-1.1-1l-8.6-1.4c-.7-.1-1.3.2-1.4.7h0c-.1.5.4.9,1.1,1l8.6,1.4c.7.1,1.3-.2,1.4-.7Z" style="fill:#00a0e9"/><path d="M13.5,28.6A8.1,8.1,0,0,1,9.8,17.8l-8-4a17.3,17.3,0,0,0,7.8,23l13,6.4,4-8.1Z" style="fill:#fff"/><circle cx="5.8" cy="15.8" r="4.5" transform="translate(-11 14.1) rotate(-63.9)" style="fill:#fff"/><path d="M10.8,18.6a1.1,1.1,0,0,0-.9-1.1L1.5,15.4c-.7-.2-1.4.1-1.4.6H0c-.2.5.3,1,1,1.1l8.4,2.1c.7.2,1.4-.1,1.4-.6Z" style="fill:#00a0e9"/><ellipse cx="32.5" cy="19.4" rx="12.6" ry="16.9" transform="translate(13 51.9) rotate(-89.8)" style="fill:#c6c7c8"/><ellipse cx="32.5" cy="19.4" rx="11.5" ry="15.9" transform="translate(13 51.9) rotate(-89.8)" style="fill:#29334f"/><ellipse cx="26.6" cy="17.8" rx="3.6" ry="4.8" transform="translate(8.7 44.3) rotate(-89.8)" style="fill:#fff;opacity:0.6000000238418579;isolation:isolate"/><ellipse cx="30.5" cy="24.3" rx="1.5" ry="2.1" transform="translate(6.1 54.7) rotate(-89.8)" style="fill:#fff;opacity:0.6000000238418579;isolation:isolate"/><rect x="18.9" y="57.6" width="27.7" height="1.51" style="fill:#fff"/><path d="M40.9,53.2a1.3,1.3,0,0,1-1.3,1.3H25.9a1.3,1.3,0,0,1-1.3-1.3V39.4a1.3,1.3,0,0,1,1.3-1.3H39.5a1.3,1.3,0,0,1,1.3,1.3V53.2Z" style="fill:#d9dadb"/><circle cx="33.8" cy="41.9" r="1.7" style="fill:#d89829"/><path d="M30.1,41.9a1.7,1.7,0,1,1-1.7-1.7A1.8,1.8,0,0,1,30.1,41.9Z" style="fill:#d89829"/><rect x="37" y="46.4" width="2" height="6.04" style="fill:#b1b3b4"/><rect x="26.6" y="46.4" width="9.2" height="6.04" style="fill:#b1b3b4"/></svg>