<?xml version="1.0" encoding="utf-8"?>
<!-- Generator: Adobe Illustrator 15.0.0, SVG Export Plug-In  -->
<!DOCTYPE svg PUBLIC "-//W3C//DTD SVG 1.1//EN" "http://www.w3.org/Graphics/SVG/1.1/DTD/svg11.dtd" [
	<!ENTITY ns_flows "http://ns.adobe.com/Flows/1.0/">
]>
<svg version="1.1"
	 xmlns="http://www.w3.org/2000/svg" xmlns:xlink="http://www.w3.org/1999/xlink" xmlns:a="http://ns.adobe.com/AdobeSVGViewerExtensions/3.0/"
	 x="0px" y="0px" width="91px" height="121px" viewBox="-0.9 -0.4 91 121"
	 overflow="visible" enable-background="new -0.9 -0.4 91 121" xml:space="preserve">
<defs>
</defs>
<path fill="#B1B3B4" d="M64,75.9c0,4.3-4.3,7.8-9.5,7.8l-25.9-0.1c-5.2,0-9.5-3.5-9.4-7.9l0.1-37.4c0-4.3,4.3-7.8,9.5-7.8l25.9,0.1
	c5.2,0,9.5,3.5,9.4,7.9L64,75.9z"/>
<path fill="#D9DADB" d="M20.8,26.8c0,1.4-1.1,2.5-2.5,2.5l0,0c-1.4,0-2.5-1.1-2.5-2.5l0-4.2c0-1.4,1.1-2.5,2.5-2.4l0,0
	c1.4,0,2.5,1.1,2.5,2.5L20.8,26.8z"/>
<path fill="#D9DADB" d="M66.3,26.9c0,1.4-1.1,2.5-2.5,2.4l0,0c-1.4,0-2.5-1.1-2.5-2.5l0-4.2c0-1.4,1.1-2.5,2.5-2.4l0,0
	c1.4,0,2.5,1.1,2.4,2.5L66.3,26.9z"/>
<circle fill="#FFFFFF" cx="41" cy="23.4" r="23.4"/>
<rect x="23.9" y="37.4" transform="matrix(1 3.452514e-03 -3.452514e-03 1 0.2013 -0.1422)" fill="#FFFFFF" width="34.8" height="41.6"/>
<path fill="#FFFFFF" d="M37.3,113.1c0,3.8-3.1,6.8-6.8,6.8l0,0c-3.8,0-6.8-3.1-6.8-6.8l0.1-38.2c0-3.8,3.1-6.8,6.8-6.8l0,0
	c3.8,0,6.8,3.1,6.8,6.8L37.3,113.1z"/>
<path fill="#FFFFFF" d="M58.5,113.1c0,3.8-3.1,6.8-6.8,6.8l0,0c-3.8,0-6.8-3.1-6.8-6.8L45,74.9c0-3.8,3.1-6.8,6.8-6.8l0,0
	c3.8,0,6.8,3.1,6.8,6.8L58.5,113.1z"/>
<path fill="#00A0E9" d="M38.8,109.4c0-0.7-0.8-1.3-1.8-1.3l-12.8,0c-1,0-1.8,0.6-1.8,1.3l0,0c0,0.7,0.8,1.3,1.8,1.3l12.8,0
	C38,110.7,38.8,110.1,38.8,109.4L38.8,109.4z"/>
<path fill="#00A0E9" d="M59.9,109.5c0-0.7-0.8-1.3-1.8-1.3l-12.8,0c-1,0-1.8,0.6-1.8,1.3l0,0c0,0.7,0.8,1.3,1.8,1.3l12.8,0
	C59.1,110.8,59.9,110.2,59.9,109.5L59.9,109.5z"/>
<path fill="#FFFFFF" d="M51.7,38.5l2.6,11l17.8-4.2C83.6,42.5,90.8,30.9,88,19.4l-11,2.7c1.3,5.4-2,10.8-7.4,12.2L51.7,38.5z"/>
<ellipse transform="matrix(0.9728 -0.2318 0.2318 0.9728 -2.5507 19.6889)" fill="#FFFFFF" cx="82.5" cy="20.7" rx="5.7" ry="5.7"/>
<path fill="#00A0E9" d="M90,23.8c0-0.6-0.7-1.1-1.6-1.1l-11,0.2c-0.8,0-1.5,0.5-1.5,1.1l0,0c0,0.6,0.7,1.1,1.6,1.1l11-0.2
	C89.4,24.9,90,24.4,90,23.8L90,23.8z"/>
<path fill="#FFFFFF" d="M33.5,45.7l-5-10.2l-16.4,8C1.5,48.8-2.9,61.7,2.3,72.4l10.1-5c-2.4-5-0.4-11,4.6-13.5L33.5,45.7z"/>
<ellipse transform="matrix(-0.8984 0.4392 -0.4392 -0.8984 44.6497 129.3591)" fill="#FFFFFF" cx="7.4" cy="69.8" rx="5.7" ry="5.7"/>
<path fill="#00A0E9" d="M13.7,66.5c-0.1-0.6-0.9-0.9-1.8-0.7L1.3,68.4c-0.8,0.2-1.4,0.8-1.2,1.4l0,0c0.1,0.6,0.9,0.9,1.8,0.7
	l10.7-2.6C13.3,67.7,13.8,67,13.7,66.5L13.7,66.5z"/>
<ellipse transform="matrix(1 3.412792e-03 -3.412792e-03 1 8.361816e-02 -0.1399)" fill="#C6C7C8" cx="41" cy="24.4" rx="21.2" ry="15.9"/>
<ellipse transform="matrix(1 3.386508e-03 -3.386508e-03 1 8.296967e-02 -0.1388)" fill="#29334F" cx="41" cy="24.4" rx="20" ry="14.5"/>
<ellipse transform="matrix(1 3.337553e-03 -3.337553e-03 1 7.487869e-02 -0.1116)" opacity="0.6" fill="#FFFFFF" cx="33.5" cy="22.4" rx="6.1" ry="4.5"/>
<ellipse transform="matrix(1 3.353185e-03 -3.353185e-03 1 0.1029 -0.1287)" opacity="0.6" fill="#FFFFFF" cx="38.4" cy="30.6" rx="2.6" ry="1.9"/>
<rect x="23.8" y="72.5" fill="#FFFFFF" width="34.8" height="1.9"/>
<path fill="#D9DADB" d="M51.5,66.9c0,0.9-0.7,1.6-1.6,1.6H32.6c-0.9,0-1.6-0.7-1.6-1.6V49.6c0-0.9,0.7-1.6,1.6-1.6h17.2
	c0.9,0,1.6,0.7,1.6,1.6V66.9z"/>
<circle fill="#D89829" cx="42.6" cy="52.7" r="2.2"/>
<path fill="#D89829" d="M37.9,52.7c0,1.2-1,2.2-2.2,2.2c-1.2,0-2.2-1-2.2-2.2c0-1.2,1-2.2,2.2-2.2C36.9,50.5,37.9,51.5,37.9,52.7z"
	/>
<rect x="46.6" y="58.4" fill="#B1B3B4" width="2.5" height="7.6"/>
<rect x="33.5" y="58.4" fill="#B1B3B4" width="11.6" height="7.6"/>
</svg>
