<?xml version="1.0" encoding="utf-8"?>
<!-- Generator: Adobe Illustrator 15.0.0, SVG Export Plug-In  -->
<!DOCTYPE svg PUBLIC "-//W3C//DTD SVG 1.1//EN" "http://www.w3.org/Graphics/SVG/1.1/DTD/svg11.dtd" [
	<!ENTITY ns_flows "http://ns.adobe.com/Flows/1.0/">
]>
<svg version="1.1"
	 xmlns="http://www.w3.org/2000/svg" xmlns:xlink="http://www.w3.org/1999/xlink" xmlns:a="http://ns.adobe.com/AdobeSVGViewerExtensions/3.0/"
	 x="0px" y="0px" width="82px" height="60px" viewBox="0 0 82 60" overflow="visible" enable-background="new 0 0 82 60"
	 xml:space="preserve">
<defs>
</defs>
<polygon fill="#A73935" points="40.3,32.5 38.4,30.5 54.4,15.6 74.9,22.4 74.1,25.1 55.1,18.8 "/>
<polygon fill="#A73935" points="33.2,12.5 27.1,15.1 27.1,17.5 33.2,20.2 "/>
<path fill="#D1D1D1" d="M36.8,31.1H19.9c-3.5,0-6.3,2.8-6.3,6.3h23.3V31.1z"/>
<rect x="22.6" y="3.8" fill="#A5A5A5" width="0.9" height="9.6"/>
<rect x="10.5" y="28.2" fill="#A5A5A5" width="0.9" height="9.6"/>
<path fill="#FF6A1D" d="M51.4,13.9c-1.8,1.8-1.8,4.8,0,6.7c1.8,1.8,4.8,1.8,6.7,0L51.4,13.9z"/>
<path fill="#F8AB1F" d="M58.1,20.6c1.8-1.8,1.8-4.8,0-6.7c-1.8-1.8-4.8-1.8-6.7,0L58.1,20.6z"/>
<path fill="#F8AB1F" d="M53.6,41.9H6.3c-3.5,0-6.3,2.8-6.3,6.3h59.9C59.9,44.7,57.1,41.9,53.6,41.9z"/>
<path fill="#FF6A1D" d="M0,48.2c0,3.5,2.8,6.3,6.3,6.3h47.2c3.5,0,6.3-2.8,6.3-6.3H0z"/>
<path fill="#EF4F4D" d="M33.2,20.2c1.1,0,1.9-0.9,1.9-1.9v-3.8c0-1.1-0.9-1.9-1.9-1.9V20.2z"/>
<path fill="#F8AB1F" d="M73.8,25.4c-0.5,0-0.9-0.2-1.2-0.7c-0.8-1.3-1.1-2.8-0.7-4.2c0.3-1.5,1.2-2.7,2.5-3.5
	c2.6-1.6,6.1-0.9,7.7,1.7c0.4,0.7,0.2,1.5-0.4,1.9c-0.7,0.4-1.5,0.2-1.9-0.4c-0.8-1.3-2.5-1.7-3.8-0.9c-0.6,0.4-1.1,1-1.2,1.7
	c-0.2,0.7,0,1.5,0.4,2.1c0.4,0.7,0.2,1.5-0.4,1.9C74.3,25.3,74.1,25.4,73.8,25.4z"/>
<path fill="#FF6A1D" d="M73.8,33.8C73.8,33.8,73.7,33.8,73.8,33.8c-3.1-0.1-5.5-2.7-5.4-5.8c0.1-3,2.6-5.4,5.6-5.4
	c0.1,0,0.2,0,0.2,0c0.8,0,1.4,0.7,1.3,1.5c0,0.8-0.7,1.3-1.4,1.3c0,0,0,0-0.1,0c-1.5-0.1-2.8,1.1-2.9,2.7c-0.1,1.5,1.1,2.8,2.7,2.9
	c0.8,0,1.4,0.7,1.3,1.5C75.2,33.2,74.5,33.8,73.8,33.8z"/>
<path fill="#EF4F4D" d="M30,35.5H13c-3.5,0-6.3,2.8-6.3,6.3H30V35.5z"/>
<path fill="#A73935" d="M30,35.5h16.9c3.5,0,6.3,2.8,6.3,6.3H30V35.5z"/>
<path fill="#D1D1D1" d="M17.5,53.8c0-3.6-2.9-6.5-6.5-6.5v6.5H17.5z"/>
<path fill="#FFFFFF" d="M11,47.3c-3.6,0-6.5,2.9-6.5,6.5H11V47.3z"/>
<path fill="#D1D1D1" d="M4.4,53.8c0,3.6,2.9,6.5,6.5,6.5v-6.5H4.4z"/>
<path fill="#A5A5A5" d="M11,53.8v6.5c3.6,0,6.5-2.9,6.5-6.5H11z"/>
<circle opacity="0.2" cx="11" cy="53.8" r="3.1"/>
<circle fill="#A73935" cx="11" cy="53.8" r="2.6"/>
<path fill="#D1D1D1" d="M36.5,53.8c0-3.6-2.9-6.5-6.5-6.5v6.5H36.5z"/>
<path fill="#FFFFFF" d="M30,47.3c-3.6,0-6.5,2.9-6.5,6.5H30V47.3z"/>
<path fill="#D1D1D1" d="M23.4,53.8c0,3.6,2.9,6.5,6.5,6.5v-6.5H23.4z"/>
<path fill="#A5A5A5" d="M30,53.8v6.5c3.6,0,6.5-2.9,6.5-6.5H30z"/>
<path opacity="0.2" d="M30,56.9c-1.7,0-3.1-1.4-3.1-3.1s1.4-3.1,3.1-3.1c1.7,0,3.1,1.4,3.1,3.1S31.6,56.9,30,56.9z"/>
<circle fill="#A73935" cx="30" cy="53.8" r="2.6"/>
<path fill="#D1D1D1" d="M55.5,53.8c0-3.6-2.9-6.5-6.5-6.5v6.5H55.5z"/>
<path fill="#FFFFFF" d="M48.9,47.3c-3.6,0-6.5,2.9-6.5,6.5h6.5V47.3z"/>
<path fill="#D1D1D1" d="M42.4,53.8c0,3.6,2.9,6.5,6.5,6.5v-6.5H42.4z"/>
<path fill="#A5A5A5" d="M48.9,53.8v6.5c3.6,0,6.5-2.9,6.5-6.5H48.9z"/>
<path opacity="0.2" d="M48.9,56.9c-1.7,0-3.1-1.4-3.1-3.1s1.4-3.1,3.1-3.1c1.7,0,3.1,1.4,3.1,3.1S50.6,56.9,48.9,56.9z"/>
<circle fill="#A73935" cx="48.9" cy="53.8" r="2.6"/>
<rect x="21.1" y="20.8" fill="#A73935" width="3.3" height="10.4"/>
<rect x="17.5" y="11.9" fill="#FF6A1D" width="11" height="8.9"/>
<path fill="#F8AB1F" d="M24.3,15.3c0,1.4-1.1,2.5-2.5,2.5h-4.3v-5.9H20h4.3V15.3z"/>
<circle fill="#FFFFFF" cx="20.8" cy="14.6" r="1.2"/>
<polygon opacity="0.2" points="28.5,18.1 29.7,18.6 29.7,14 28.5,14.5 "/>
<path fill="#A5A5A5" d="M71.7,22.2c-1,1-1,2.5,0,3.5c1,1,2.5,1,3.5,0L71.7,22.2z"/>
<path fill="#FFFFFF" d="M75.2,25.7c1-1,1-2.5,0-3.5c-1-1-2.5-1-3.5,0L75.2,25.7z"/>
<rect x="21.1" y="20.8" opacity="0.2" width="3.3" height="1.6"/>
<path opacity="0.2" d="M13.9,35.5h17.7V34h-17C14.3,34.5,14,35,13.9,35.5z"/>
<path fill="#A5A5A5" d="M36.8,26.7v6.9v2h6.9v-2C43.7,29.7,40.6,26.7,36.8,26.7z"/>
<path fill="#FFFFFF" d="M30,33.5v2h6.9v-2v-6.9C33,26.7,30,29.7,30,33.5z"/>
<path fill="#FFFFFF" d="M23.8,44.4c0,0.6-0.5,1.2-1.2,1.2H6.1C5.5,45.5,5,45,5,44.4l0,0c0-0.6,0.5-1.2,1.2-1.2h16.5
	C23.2,43.2,23.8,43.7,23.8,44.4L23.8,44.4z"/>
<circle fill="#FFFFFF" cx="25.9" cy="44.4" r="1.2"/>
<circle fill="#FFFFFF" cx="29.6" cy="44.4" r="1.2"/>
<circle fill="#FFFFFF" cx="33.2" cy="44.4" r="1.2"/>
<circle fill="#D1D1D1" cx="23" cy="2.2" r="2.2"/>
<circle fill="#D1D1D1" cx="11" cy="26.6" r="2.2"/>
<circle fill="#FFFFFF" cx="10.5" cy="26.2" r="1"/>
<circle fill="#FFFFFF" cx="22.6" cy="1.8" r="1"/>
</svg>
