<?xml version="1.0" encoding="utf-8"?>
<!-- Generator: Adobe Illustrator 15.0.0, SVG Export Plug-In  -->
<!DOCTYPE svg PUBLIC "-//W3C//DTD SVG 1.1//EN" "http://www.w3.org/Graphics/SVG/1.1/DTD/svg11.dtd" [
	<!ENTITY ns_flows "http://ns.adobe.com/Flows/1.0/">
]>
<svg version="1.1"
	 xmlns="http://www.w3.org/2000/svg" xmlns:xlink="http://www.w3.org/1999/xlink" xmlns:a="http://ns.adobe.com/AdobeSVGViewerExtensions/3.0/"
	 x="0px" y="0px" width="400px" height="63px" viewBox="0 0 400 63" overflow="visible" enable-background="new 0 0 400 63"
	 xml:space="preserve">
<defs>
</defs>
<polygon fill="#7F895F" points="399.9,30.6 383.9,26.2 357.2,9.1 344.5,14 340.6,27.4 328.2,31.6 313,40.6 399.9,54.7 "/>
<polygon fill="#7F895F" points="1,29.5 15.2,24.6 38.8,5.5 50.1,11 53.5,25.8 64.5,30.5 76.7,42 1,42 "/>
<path fill="#B3C193" d="M397.2,22.9h-9.6l-3.3-7.4L371.4,0h-6.2l-11,24.3l-8.4,5.7l-11.2,2.4l-7.8,9.6c-37.5-3.8-80.8-6-126.9-6
	c-46.2,0-89.5,2.2-127.1,6h-1.7l-7.8-5.4l-8.1-11.9l-6.4-0.1l-3,4.5h-3.5L31.8,16.4l-8-3L12.5,0.1H7.8L2.2,12.7L0,14.6v48.1h400
	V30.7L397.2,22.9z"/>
<path fill="#7F895F" d="M353,28.5c-1.1,0-2,0.7-2,1.5h4C355,29.2,354.1,28.5,353,28.5z"/>
<path fill="#7F895F" d="M351.6,35.9c-1.3,0-2.3,1.1-2.3,2.5h4.7C353.9,37,352.9,35.9,351.6,35.9z"/>
<path fill="#7F895F" d="M374.4,35.8c-1.3,0-2.3,1.2-2.3,2.8h4.7C376.7,37.1,375.7,35.8,374.4,35.8z"/>
<path fill="#7F895F" d="M394.3,41.2c-0.9,0-1.6,0.9-1.6,2.1h3.2C395.9,42.1,395.2,41.2,394.3,41.2z"/>
<path fill="#7F895F" d="M390.3,33.2c-1.3,0-2.3,1.1-2.3,2.5h4.7C392.7,34.3,391.6,33.2,390.3,33.2z"/>
<path fill="#7F895F" d="M360,28.9c-1.3,0-2.3,1.7-2.3,3.9h4.7C362.3,30.7,361.3,28.9,360,28.9z"/>
<path fill="#7F895F" d="M342.9,32.8c-0.9,0-1.7,1.3-1.7,2.8h3.4C344.6,34,343.8,32.8,342.9,32.8z"/>
<path fill="#7F895F" d="M367.3,13.7c-1.3,0-2.3,1.7-2.3,3.9h4.7C369.7,15.4,368.6,13.7,367.3,13.7z"/>
<path fill="#7F895F" d="M378.8,24.9c-1.3,0-2.3,1.7-2.3,3.9h4.7C381.1,26.6,380.1,24.9,378.8,24.9z"/>
<polygon opacity="0.15" fill="#231815" points="334.5,43.7 339.9,39 357.2,33.1 364.9,29.1 369.7,6.2 372.8,1.7 384.3,15.5 
	387.6,22.9 397.2,22.9 400,30.7 400,52 376.6,49.3 370.4,48.5 355.1,46.8 338.4,44.8 "/>
<path fill="#7F895F" d="M51.7,39.8c1.3,0,2.3,1.1,2.3,2.5h-4.7C49.3,40.9,50.4,39.8,51.7,39.8z"/>
<path fill="#7F895F" d="M19.6,35.2c1.3,0,2.3,1.2,2.3,2.8h-4.7C17.2,36.5,18.3,35.2,19.6,35.2z"/>
<path fill="#7F895F" d="M8.4,42c0.9,0,1.6,0.9,1.6,2.1H6.8C6.8,42.9,7.5,42,8.4,42z"/>
<path fill="#7F895F" d="M7.7,32c1.3,0,2.3,1.1,2.3,2.5H5.4C5.4,33.1,6.4,32,7.7,32z"/>
<path fill="#7F895F" d="M38.3,34.6c1.3,0,2.3,1.7,2.3,3.9H36C36,36.4,37,34.6,38.3,34.6z"/>
<path fill="#7F895F" d="M56.2,32.3c0.9,0,1.7,1.3,1.7,2.8h-3.4C54.5,33.6,55.2,32.3,56.2,32.3z"/>
<path fill="#7F895F" d="M27.8,22.4c1.3,0,2.3,1.7,2.3,3.9h-4.7C25.4,24.2,26.5,22.4,27.8,22.4z"/>
<path fill="#7F895F" d="M13.1,19.4c1.3,0,2.3,1.7,2.3,3.9h-4.7C10.8,21.2,11.8,19.4,13.1,19.4z"/>
<polygon opacity="0.15" fill="#231815" points="70.4,44.5 48.7,35.4 45.3,39.3 41.5,38.9 36.5,32 30.9,31 19,21.1 15,14.5 7.3,7 
	4.7,7 2.2,12.7 0,14.6 0,50.1 57.3,46.2 "/>
<path fill="#7F895F" d="M70.3,52c1.3,0,2.3,0.9,2.3,1.9H68C68,52.9,69,52,70.3,52z"/>
<path fill="#7F895F" d="M97.3,55.1c1.3,0,2.3,0.9,2.3,1.9H95C95,56,96,55.1,97.3,55.1z"/>
<path fill="#7F895F" d="M104.1,53c1.3,0,2.3,0.9,2.3,1.9h-4.7C101.8,53.8,102.8,53,104.1,53z"/>
<path fill="#7F895F" d="M138.9,52.4c1.3,0,2.3,0.9,2.3,1.9h-4.7C136.6,53.2,137.6,52.4,138.9,52.4z"/>
<path fill="#7F895F" d="M256.4,42.4c1.3,0,2.3,0.9,2.3,1.9h-4.7C254.1,43.3,255.1,42.4,256.4,42.4z"/>
<path fill="#7F895F" d="M263.2,40.3c1.3,0,2.3,0.9,2.3,1.9h-4.7C260.9,41.1,261.9,40.3,263.2,40.3z"/>
<path fill="#7F895F" d="M315.4,44.2c1.3,0,2.3,0.9,2.3,1.9H313C313,45,314.1,44.2,315.4,44.2z"/>
<path fill="#7F895F" d="M341.1,51c1.3,0,2.3,0.9,2.3,1.9h-4.7C338.8,51.9,339.8,51,341.1,51z"/>
<path fill="#7F895F" d="M38.8,52c1.3,0,2.3,0.9,2.3,1.9h-4.7C36.5,52.9,37.5,52,38.8,52z"/>
</svg>
