<?xml version="1.0" encoding="utf-8"?>
<!-- Generator: Adobe Illustrator 15.0.0, SVG Export Plug-In  -->
<!DOCTYPE svg PUBLIC "-//W3C//DTD SVG 1.1//EN" "http://www.w3.org/Graphics/SVG/1.1/DTD/svg11.dtd" [
	<!ENTITY ns_flows "http://ns.adobe.com/Flows/1.0/">
]>
<svg version="1.1"
	 xmlns="http://www.w3.org/2000/svg" xmlns:xlink="http://www.w3.org/1999/xlink" xmlns:a="http://ns.adobe.com/AdobeSVGViewerExtensions/3.0/"
	 x="0px" y="0px" width="367px" height="240px" viewBox="0 -33.3 367 240"
	 overflow="visible" enable-background="new 0 -33.3 367 240" xml:space="preserve">
<defs>
</defs>
<path fill="#006D65" d="M247.2,157.4c6.2,0,11.3,5.3,11.3,11.9H236C236,162.8,241,157.4,247.2,157.4z"/>
<path fill="#005B52" d="M93.3,135.3c6.2,0,11.3,6,11.3,13.4H82C82,141.3,87.1,135.3,93.3,135.3z"/>
<path fill="#005B52" d="M39.8,167.7c4.3,0,7.8,4.4,7.8,9.9H32C32,172.1,35.5,167.7,39.8,167.7z"/>
<path fill="#005B52" d="M36.3,119.9c6.2,0,11.3,5.3,11.3,11.9H25.1C25.1,125.2,30.1,119.9,36.3,119.9z"/>
<path fill="#006D65" d="M183.4,132.5c6.2,0,11.3,8.3,11.3,18.6h-22.6C172.1,140.8,177.1,132.5,183.4,132.5z"/>
<path fill="#006D65" d="M269,121.5c4.6,0,8.2,6.1,8.2,13.6h-16.5C260.8,127.6,264.5,121.5,269,121.5z"/>
<path fill="#006D65" d="M132.7,73.9c6.2,0,11.3,8.3,11.3,18.6h-22.6C121.4,82.2,126.5,73.9,132.7,73.9z"/>
<path fill="#005B52" d="M62.2,59.6c6.2,0,11.3,8.3,11.3,18.6H50.9C50.9,67.9,56,59.6,62.2,59.6z"/>
<polygon opacity="0.15" fill="#231815" enable-background="new    " points="337,180 233,136.3 216.7,155 198.7,153.2 174.6,119.8 
	147.7,115.1 90.3,67.3 71.5,35.7 34.3,0 23,0 10.5,27.5 0,36.5 0,206.7 274.4,188 "/>
</svg>
