<?xml version="1.0" encoding="utf-8"?>
<!-- Generator: Adobe Illustrator 15.0.0, SVG Export Plug-In  -->
<!DOCTYPE svg PUBLIC "-//W3C//DTD SVG 1.1//EN" "http://www.w3.org/Graphics/SVG/1.1/DTD/svg11.dtd" [
	<!ENTITY ns_flows "http://ns.adobe.com/Flows/1.0/">
]>
<svg version="1.1"
	 xmlns="http://www.w3.org/2000/svg" xmlns:xlink="http://www.w3.org/1999/xlink" xmlns:a="http://ns.adobe.com/AdobeSVGViewerExtensions/3.0/"
	 x="0px" y="0px" width="367px" height="301px" viewBox="0 0 367 301" overflow="visible" enable-background="new 0 0 367 301"
	 xml:space="preserve">
<defs>
</defs>
<polygon fill="#006D65" points="4,141 72.2,117.4 185.7,26.1 239.7,52.3 256.3,123.6 309,145.9 367.4,201.3 4,201.3 "/>
<polygon fill="#00A199" points="344.9,203.3 304.3,175.3 265.6,118.1 234.9,117.4 220.3,138.9 203.4,138.9 152.4,78.3 114,63.9 
	59.9,0 37.4,0 10.5,60.8 0,69.8 0,203.3 "/>
<path fill="#006D65" d="M247.2,190.7c6.2,0,11.3,5.3,11.3,11.9H236C236,196.1,241,190.7,247.2,190.7z"/>
<path fill="#005B52" d="M93.3,168.6c6.2,0,11.3,6,11.3,13.4H82C82,174.6,87.1,168.6,93.3,168.6z"/>
<path fill="#005B52" d="M39.8,201c4.3,0,7.8,4.4,7.8,9.9H32C32,205.4,35.5,201,39.8,201z"/>
<path fill="#005B52" d="M36.3,153.2c6.2,0,11.3,5.3,11.3,11.9H25.1C25.1,158.5,30.1,153.2,36.3,153.2z"/>
<path fill="#006D65" d="M183.4,165.8c6.2,0,11.3,8.3,11.3,18.6h-22.6C172.1,174.1,177.1,165.8,183.4,165.8z"/>
<path fill="#006D65" d="M269,154.8c4.6,0,8.2,6.1,8.2,13.6h-16.5C260.8,160.9,264.5,154.8,269,154.8z"/>
<path fill="#006D65" d="M132.7,107.2c6.2,0,11.3,8.3,11.3,18.6h-22.6C121.4,115.5,126.5,107.2,132.7,107.2z"/>
<path fill="#005B52" d="M62.2,92.9c6.2,0,11.3,8.3,11.3,18.6H50.9C50.9,101.2,56,92.9,62.2,92.9z"/>
<polygon opacity="0.15" fill="#231815" points="337,213.3 233,169.6 216.7,188.3 198.7,186.5 174.6,153.1 147.7,148.4 90.3,100.6 
	71.5,69 34.3,33.3 23,33.3 10.5,60.8 0,69.8 0,240 274.4,221.3 "/>
</svg>
