<?xml version="1.0" encoding="utf-8"?>
<!-- Generator: Adobe Illustrator 15.0.0, SVG Export Plug-In . SVG Version: 6.00 Build 0)  -->
<!DOCTYPE svg PUBLIC "-//W3C//DTD SVG 1.1//EN" "http://www.w3.org/Graphics/SVG/1.1/DTD/svg11.dtd">
<svg version="1.1" id="圖層_1" xmlns="http://www.w3.org/2000/svg" xmlns:xlink="http://www.w3.org/1999/xlink" x="0px" y="0px"
	 width="412px" height="250px" viewBox="0 0 412 250" enable-background="new 0 0 412 250" xml:space="preserve">
<polygon fill="#006D65" points="411.398,154.115 334.398,131.414 206.166,43.479 145.124,68.682 126.458,137.344 66.847,158.895 
	0.934,212.268 411.398,212.268 "/>
<polygon fill="#00A199" points="60.385,213.269 98.702,163.931 152.334,152.018 192.751,123.32 245.452,1 275,1 337,79.023 
	352.666,116.1 398.874,116.1 412,155.118 412,213.269 "/>
<path fill="#00A199" d="M186.484,136.809c-5.302,0-9.6,3.258-9.6,7.276h19.198C196.083,140.066,191.784,136.809,186.484,136.809z"/>
<path fill="#006D65" d="M179.895,172.419c-6.227,0-11.275,5.332-11.275,11.91h22.551
	C191.171,177.751,186.122,172.419,179.895,172.419z"/>
<path fill="#005B52" d="M289.284,172.041c-6.228,0-11.275,6-11.275,13.4h22.552C300.561,178.041,295.511,172.041,289.284,172.041z"
	/>
<path fill="#005B52" d="M384.818,197.566c-4.297,0-7.781,4.438-7.781,9.918H392.6C392.601,202.007,389.116,197.566,384.818,197.566z
	"/>
<path fill="#005B52" d="M365.762,159.132c-6.227,0-11.273,5.332-11.273,11.91h22.551
	C377.037,164.464,371.988,159.132,365.762,159.132z"/>
<path fill="#006D65" d="M220.191,138.836c-6.227,0-11.274,8.322-11.274,18.59h22.551
	C231.468,147.158,226.419,138.836,220.191,138.836z"/>
<path fill="#006D65" d="M137.941,157.254c-4.553,0-8.243,6.084-8.243,13.59h16.485C146.183,163.338,142.492,157.254,137.941,157.254
	z"/>
<path fill="#006D65" d="M255.458,65.637c-6.228,0-11.274,8.322-11.274,18.59h22.551C266.732,73.959,261.686,65.637,255.458,65.637z"
	/>
<path fill="#005B52" d="M310.458,119.567c-6.228,0-11.274,8.322-11.274,18.59h22.552
	C321.733,127.891,316.685,119.567,310.458,119.567z"/>
<polygon opacity="0.15" fill="#231815" enable-background="new    " points="97.668,220.9 123.672,197.328 206.768,167.56 
	243.945,147.291 266.611,32.154 281.893,9.547 337,78.898 352.666,115.975 398.874,115.975 412,154.993 412,249.334 
	300.561,240.876 269.5,235.376 199,231.876 121,223.376 "/>
</svg>
