<?xml version="1.0" encoding="utf-8"?>
<!-- Generator: Adobe Illustrator 15.0.0, SVG Export Plug-In  -->
<!DOCTYPE svg PUBLIC "-//W3C//DTD SVG 1.1//EN" "http://www.w3.org/Graphics/SVG/1.1/DTD/svg11.dtd" [
	<!ENTITY ns_flows "http://ns.adobe.com/Flows/1.0/">
]>
<svg version="1.1"
	 xmlns="http://www.w3.org/2000/svg" xmlns:xlink="http://www.w3.org/1999/xlink" xmlns:a="http://ns.adobe.com/AdobeSVGViewerExtensions/3.0/"
	 x="0px" y="0px" width="200px" height="37px" viewBox="0 0 200 37" overflow="visible" enable-background="new 0 0 200 37"
	 xml:space="preserve">
<defs>
</defs>
<path fill="#231815" d="M183.1,29.3v-1.5h0.8c0.4,0,0.8,0.1,1.1,0.4c0.4,0.3,0.6,0.7,0.6,1.3v7.1H184v-7.1v-0.1l0,0v0l0,0
	c0,0,0,0-0.1,0c0,0-0.1,0-0.1,0H183.1z"/>
<path fill="#231815" d="M186.7,29.3v-1.5h12.6c0.3,0,0.6,0.2,0.7,0.5c0.1,0.3,0.1,0.6-0.2,0.8l-7.2,7.3l-0.5,0.5l-1.1-1.1l0.5-0.5
	l5.9-6H186.7z"/>
<path fill="#231815" d="M11.2,25.2L22.3,13v23.1h-2.4V19.3l-8.7,9.5l-8.7-9.5v16.8H0V13L11.2,25.2z"/>
<path fill="#231815" d="M33.9,17.4c2.7,0,4.9,0.9,6.8,2.8c1.9,1.9,2.8,4.1,2.8,6.8c0,2.6-0.9,4.9-2.8,6.8c-1.9,1.9-4.1,2.8-6.8,2.8
	c-2.6,0-4.9-0.9-6.8-2.8c-1.9-1.9-2.8-4.2-2.8-6.8c0-2.7,0.9-4.9,2.8-6.8C29.1,18.4,31.3,17.4,33.9,17.4z M33.9,19.9
	c-2,0-3.7,0.7-5.1,2.1c-1.4,1.4-2.1,3.1-2.1,5.1c0,2,0.7,3.7,2.1,5.1c1.4,1.4,3.1,2.1,5.1,2.1c2,0,3.7-0.7,5.1-2.1
	c1.4-1.4,2.1-3.1,2.1-5.1c0-2-0.7-3.7-2.1-5.1C37.6,20.6,35.9,19.9,33.9,19.9z"/>
<path fill="#231815" d="M82,30.4l2.1,1.2c-0.8,1.5-2,2.7-3.5,3.7c-1.5,0.9-3.2,1.4-5,1.4c-2.6,0-4.9-0.9-6.8-2.8
	c-1.9-1.9-2.8-4.2-2.8-6.8c0-2.7,0.9-4.9,2.8-6.8c1.9-1.9,4.2-2.8,6.8-2.8c1.7,0,3.2,0.4,4.7,1.2c1.5,0.8,2.6,1.9,3.4,3.2L71.4,32.8
	c1.2,0.9,2.7,1.4,4.3,1.4c1.4,0,2.6-0.3,3.7-1C80.5,32.5,81.4,31.6,82,30.4z M69.8,31l10.6-9.4c-1.3-1.2-2.9-1.7-4.7-1.7
	c-2,0-3.7,0.7-5.1,2.1c-1.4,1.4-2.1,3.1-2.1,5.1C68.6,28.5,69,29.8,69.8,31z"/>
<path fill="#00A199" d="M154,30.4l2.1,1.2c-0.8,1.5-2,2.7-3.5,3.7c-1.5,0.9-3.2,1.4-5,1.4c-2.6,0-4.9-0.9-6.8-2.8
	c-1.9-1.9-2.8-4.2-2.8-6.8c0-2.7,0.9-4.9,2.8-6.8c1.9-1.9,4.2-2.8,6.8-2.8c1.7,0,3.2,0.4,4.7,1.2c1.5,0.8,2.6,1.9,3.4,3.2
	l-12.4,10.9c1.2,0.9,2.7,1.4,4.3,1.4c1.4,0,2.6-0.3,3.7-1C152.5,32.5,153.4,31.6,154,30.4z M141.7,31l10.6-9.4
	c-1.3-1.2-2.9-1.7-4.7-1.7c-2,0-3.7,0.7-5.1,2.1c-1.4,1.4-2.1,3.1-2.1,5.1C140.5,28.5,140.9,29.8,141.7,31z"/>
<polygon fill="#00A199" points="136.5,13 131.1,29.1 125.7,13.3 120.4,29.1 115,13 112.4,13 120.4,36.7 125.7,20.9 131.1,36.7 
	139.1,13 "/>
<path fill="#231815" d="M96.1,17.9c-0.8-0.3-1.6-0.5-2.6-0.5c-2,0-3.8,0.7-5.2,2.1c-1.4,1.4-2.1,3.1-2.1,5.2v11.4h2.4V24.7
	c0-1.4,0.5-2.5,1.4-3.4c0.9-0.9,2.1-1.4,3.4-1.4c0.6,0,1.1,0.1,1.6,0.3L96.1,17.9z"/>
<path fill="#231815" d="M110.2,19.5c-1.4-1.4-3.1-2.1-5.2-2.1c0,0,0,0,0,0h0h0h0c0,0,0,0,0,0c-2,0-3.8,0.7-5.2,2.1
	c-1.4,1.4-2.1,3.1-2.1,5.2v11.4h2.4V24.7c0-1.4,0.5-2.5,1.4-3.4c0.9-0.9,2.1-1.4,3.4-1.4h0c1.3,0,2.5,0.5,3.4,1.4
	c0.9,0.9,1.4,2.1,1.4,3.4v11.4h2.4V24.7C112.3,22.6,111.6,20.9,110.2,19.5z"/>
<path fill="#00A199" d="M158.3,13V27c0-0.6,0.1-1.3,0.2-1.9c-0.1,0.6-0.2,1.2-0.2,1.9c0,2.6,0.9,4.9,2.8,6.8
	c1.9,1.9,4.1,2.8,6.8,2.8c2.6,0,4.9-0.9,6.8-2.8c1.9-1.9,2.8-4.2,2.8-6.8c0-2.7-1-4.9-2.8-6.8c-1.9-1.9-4.2-2.8-6.8-2.8
	c-2.7,0-4.9,0.9-6.8,2.8c-0.1,0.1-0.1,0.2-0.2,0.3c0,0-0.1,0.1-0.1,0.1V13H158.3z M160.7,27c0-2,0.7-3.7,2.1-5.1
	c1.4-1.4,3.1-2.1,5.1-2.1c2,0,3.7,0.7,5.1,2.1c1.4,1.4,2.1,3.1,2.1,5.1c0,2-0.7,3.7-2.1,5.1c-1.4,1.4-3.1,2.1-5.1,2.1
	c-2,0-3.7-0.7-5.1-2.1C161.4,30.7,160.7,29,160.7,27z M158.9,23.7c0-0.1,0-0.1,0-0.2C158.9,23.5,158.9,23.6,158.9,23.7z"/>
<path fill="#00A199" d="M65.9,8.4C65.9,7.9,66,7.4,66,6.8v0c0-3.1-1.3-5.8-3.1-6.8c-1.8,1.1-3.1,3.7-3.1,6.8v0c0,0.6,0,1.1,0.1,1.6
	c-0.8,0.7-1.3,1.7-1.3,2.8c0,0.7,0.2,1.3,0.5,1.9c0.4-0.6,1.1-1.1,2-1.3c0.2,0.3,0.4,0.6,0.6,0.8v8c0,0-0.1-0.1-0.1-0.1
	c-0.1-0.1-0.1-0.2-0.2-0.3c-1.9-1.9-4.1-2.8-6.8-2.8c-2.6,0-4.9,0.9-6.8,2.8c-1.9,1.9-2.8,4.1-2.8,6.8c0,2.6,0.9,4.9,2.8,6.8
	c1.9,1.9,4.2,2.8,6.8,2.8c2.7,0,4.9-0.9,6.8-2.8c1.9-1.9,2.8-4.2,2.8-6.8c0-0.3,0-0.5,0-0.5v-14c0.2-0.2,0.4-0.5,0.6-0.8
	c0.8,0.3,1.5,0.8,2,1.3c0.3-0.6,0.5-1.2,0.5-1.9C67.1,10.1,66.6,9.1,65.9,8.4z M54.7,34.2c0.2-0.2,0.3-0.4,0.4-0.6
	c0.1,0.2,0.3,0.4,0.4,0.5C55.2,34.2,54.9,34.2,54.7,34.2z M58,24.2c-0.5-0.3-1-0.4-1.6-0.4c-1.6,0-3,1.3-3,3c0,0.3,0.1,0.6,0.1,0.9
	c-0.8,0.2-1.4,1-1.4,1.9c0,0,0,0.1,0,0.1c-1.4,0.2-2.4,1.3-2.4,2.8c0,0,0,0.1,0,0.1c-0.1-0.1-0.2-0.2-0.4-0.3
	c-1.4-1.4-2.1-3.1-2.1-5.1c0-2,0.7-3.7,2.1-5.1c1.4-1.4,3.1-2.1,5.1-2.1c2,0,3.7,0.7,5.1,2.1c0.2,0.2,0.4,0.5,0.6,0.7
	C59.2,22.7,58.4,23.4,58,24.2z M62.9,6.3c-1,0-1.8-0.8-1.8-1.8c0-1,0.8-1.8,1.8-1.8c1,0,1.8,0.8,1.8,1.8C64.6,5.5,63.8,6.3,62.9,6.3
	z"/>
<circle fill="#00A199" cx="55.4" cy="32.9" r="2"/>
<polygon fill="#231815" points="180.7,29.3 179.7,29.3 180.2,26.3 182,26.3 "/>
</svg>
