<?xml version="1.0" encoding="utf-8"?>
<!-- Generator: Adobe Illustrator 15.0.0, SVG Export Plug-In . SVG Version: 6.00 Build 0)  -->
<!DOCTYPE svg PUBLIC "-//W3C//DTD SVG 1.1//EN" "http://www.w3.org/Graphics/SVG/1.1/DTD/svg11.dtd">
<svg version="1.1" id="圖層_1" xmlns="http://www.w3.org/2000/svg" xmlns:xlink="http://www.w3.org/1999/xlink" x="0px" y="0px"
	 width="552px" height="103px" viewBox="0 0 552 103" enable-background="new 0 0 552 103" xml:space="preserve">
<path fill="#FFFFFF" d="M504.73,80.811v-4.172h2.087c1.085,0,2.065,0.348,2.952,1.043c1.086,0.855,1.628,2.043,1.628,3.564v19.588
	h-4.171V81.247v-0.154l-0.021-0.088v-0.042l-0.021-0.023c-0.016-0.013-0.063-0.035-0.152-0.062
	c-0.103-0.027-0.187-0.049-0.258-0.064h-2.045V80.811z"/>
<path fill="#FFFFFF" d="M514.656,80.852v-4.166h34.598c0.925,0,1.564,0.424,1.911,1.279c0.361,0.854,0.22,1.605-0.434,2.258
	l-19.742,20.024l-1.458,1.478l-2.973-2.932l1.479-1.479l16.2-16.463H514.656L514.656,80.852z"/>
<path fill="#FFFFFF" d="M30.784,69.559l30.782-33.727v63.727h-6.747V53.248L30.784,79.493L6.746,53.248v46.312H0V35.833
	L30.784,69.559z"/>
<path fill="#FFFFFF" d="M93.575,48.052c7.356,0,13.612,2.575,18.764,7.726c5.151,5.15,7.725,11.406,7.725,18.763
	c0,7.198-2.573,13.412-7.725,18.646c-5.151,5.229-11.407,7.847-18.764,7.847c-7.196,0-13.412-2.616-18.644-7.847
	c-5.229-5.232-7.848-11.446-7.848-18.646c0-7.354,2.618-13.61,7.848-18.763C80.163,50.626,86.379,48.052,93.575,48.052z
	 M93.575,54.796c-5.562,0-10.242,1.897-14.044,5.702c-3.801,3.804-5.703,8.482-5.703,14.041c0,5.562,1.902,10.241,5.703,14.042
	c3.802,3.804,8.482,5.702,14.044,5.702c5.474,0,10.136-1.919,13.98-5.764c3.841-3.84,5.765-8.498,5.765-13.98
	c0-5.475-1.924-10.135-5.765-13.979C103.711,56.717,99.049,54.796,93.575,54.796z"/>
<path fill="#FFFFFF" d="M226.147,83.739l5.885,3.312c-2.208,4.17-5.396,7.543-9.568,10.117c-4.169,2.578-8.747,3.861-13.732,3.861
	c-7.197,0-13.411-2.615-18.644-7.846c-5.23-5.232-7.847-11.447-7.847-18.646c0-7.354,2.616-13.611,7.847-18.763
	c5.232-5.15,11.446-7.726,18.644-7.726c4.576,0,8.89,1.145,12.938,3.433c4.049,2.291,7.176,5.193,9.381,8.707l-34.216,30.172
	c3.435,2.615,7.397,3.921,11.897,3.921c3.758,0,7.172-0.938,10.24-2.82C222.035,89.584,224.429,87.01,226.147,83.739z
	 M192.297,85.58l29.311-26c-3.68-3.188-7.973-4.783-12.876-4.783c-5.561,0-10.243,1.898-14.043,5.702
	c-3.803,3.804-5.703,8.481-5.703,14.041C188.985,78.548,190.088,82.229,192.297,85.58z"/>
<path fill="#FFFFFF" d="M424.604,83.739l5.883,3.312c-2.203,4.17-5.396,7.543-9.564,10.117c-4.167,2.578-8.75,3.861-13.731,3.861
	c-7.199,0-13.411-2.615-18.646-7.846c-5.229-5.232-7.846-11.447-7.846-18.646c0-7.354,2.615-13.611,7.846-18.763
	c5.233-5.15,11.445-7.726,18.646-7.726c4.577,0,8.891,1.145,12.938,3.433c4.045,2.291,7.172,5.193,9.379,8.707l-34.216,30.172
	c3.433,2.615,7.397,3.921,11.897,3.921c3.761,0,7.172-0.938,10.239-2.82C420.492,89.584,422.886,87.01,424.604,83.739z
	 M390.755,85.58l29.312-26c-3.682-3.188-7.975-4.783-12.877-4.783c-5.562,0-10.241,1.898-14.046,5.702
	c-3.802,3.804-5.7,8.481-5.7,14.041C387.442,78.548,388.544,82.229,390.755,85.58z"/>
<polygon fill="#FFFFFF" points="376.405,35.833 361.364,80.182 346.648,36.77 331.933,80.182 316.894,35.833 309.782,35.833 
	331.933,101.152 346.648,57.739 361.364,101.152 383.516,35.833 "/>
<path fill="#FFFFFF" d="M264.826,49.349c-2.19-0.828-4.542-1.297-7.106-1.297c-5.642,0-10.384,1.92-14.225,5.761
	c-3.842,3.845-5.766,8.588-5.766,14.229v31.519h6.747V68.042c0-3.842,1.287-7.011,3.861-9.503c2.574-2.493,5.702-3.742,9.382-3.742
	c1.536,0,2.952,0.276,4.295,0.727L264.826,49.349z"/>
<path fill="#FFFFFF" d="M303.698,53.812c-3.843-3.84-8.583-5.761-14.224-5.761c-0.013,0-0.016,0.002-0.026,0.002h0.026h-0.054h0.026
	c-0.01,0-0.016-0.002-0.026-0.002c-5.642,0-10.382,1.92-14.225,5.761c-3.84,3.845-5.763,8.588-5.763,14.229v31.519h6.746V68.042
	c0-3.842,1.285-7.011,3.859-9.503c2.577-2.493,5.703-3.742,9.382-3.742h0.053c3.68,0,6.805,1.249,9.383,3.742
	c2.574,2.492,3.857,5.661,3.857,9.503v31.519h6.747V68.042C309.462,62.4,307.541,57.657,303.698,53.812z"/>
<path fill="#FFFFFF" d="M436.384,35.712V74.54c0-1.774,0.16-3.485,0.472-5.134c-0.305,1.65-0.472,3.357-0.472,5.134
	c0,7.198,2.575,13.412,7.728,18.646c5.149,5.229,11.405,7.847,18.765,7.847c7.195,0,13.412-2.616,18.643-7.847
	c5.229-5.232,7.85-11.446,7.85-18.646c0-7.354-2.62-13.61-7.85-18.763c-5.229-5.15-11.446-7.726-18.643-7.726
	c-7.358,0-13.614,2.575-18.765,7.726c-0.228,0.228-0.377,0.482-0.592,0.714c-0.126,0.136-0.266,0.253-0.391,0.391v-21.17H436.384z
	 M443.129,74.54c0-5.476,1.923-10.135,5.766-13.979c3.846-3.843,8.505-5.764,13.98-5.764c5.559,0,10.242,1.898,14.041,5.702
	c3.802,3.804,5.703,8.481,5.703,14.041c0,5.562-1.901,10.241-5.703,14.042c-3.799,3.804-8.482,5.702-14.041,5.702
	c-5.477,0-10.136-1.919-13.98-5.765C445.052,84.68,443.129,80.023,443.129,74.54z M438.058,65.208
	c0.059-0.149,0.079-0.319,0.141-0.469C438.137,64.889,438.115,65.057,438.058,65.208z"/>
<path fill="#FFFFFF" d="M181.549,23.229c0.216-1.428,0.341-2.908,0.342-4.434v-0.016c-0.005-8.56-3.582-15.87-8.621-18.779
	c-5.041,2.909-8.619,10.219-8.623,18.779v0.016c0.001,1.526,0.126,3.006,0.342,4.435c-2.183,1.97-3.54,4.71-3.54,7.743
	c0,1.898,0.532,3.684,1.465,5.236c1.208-1.621,3.1-2.918,5.379-3.704c0.522,0.834,1.076,1.623,1.685,2.315v22.062
	c-0.126-0.138-0.262-0.255-0.388-0.391c-0.216-0.23-0.366-0.486-0.592-0.713c-5.151-5.151-11.406-7.727-18.765-7.727
	c-7.196,0-13.412,2.575-18.644,7.727c-5.231,5.149-7.849,11.406-7.849,18.762c0,7.197,2.617,13.412,7.849,18.645
	c5.231,5.23,11.447,7.848,18.644,7.848c7.358,0,13.613-2.616,18.765-7.848c5.148-5.231,7.723-11.445,7.723-18.645
	c0-0.888,0-1.332,0-1.332v-38.59c0.544-0.645,1.05-1.355,1.525-2.113c2.278,0.786,4.171,2.083,5.38,3.704
	c0.931-1.552,1.463-3.338,1.463-5.236C185.089,27.939,183.732,25.199,181.549,23.229z M130.489,74.54
	c0-5.56,1.899-10.237,5.703-14.041c3.799-3.804,8.48-5.702,14.042-5.702c5.475,0,10.135,1.921,13.979,5.764
	c0.629,0.63,1.188,1.289,1.713,1.962c-2.731,0.169-5.048,1.853-6.12,4.227c-1.246-0.766-2.708-1.215-4.278-1.215
	c-4.524,0-8.192,3.667-8.192,8.192c0,0.824,0.125,1.618,0.351,2.368c-2.224,0.691-3.84,2.767-3.84,5.218
	c0,0.079,0.008,0.156,0.012,0.235c-3.773,0.514-6.686,3.741-6.686,7.654c0,0.098,0.011,0.192,0.015,0.289
	c-0.335-0.296-0.674-0.586-0.997-0.909C132.388,84.781,130.489,80.104,130.489,74.54z M173.27,17.381
	c-2.678,0-4.849-2.171-4.849-4.849c0-2.678,2.171-4.849,4.849-4.849s4.849,2.171,4.849,4.849
	C178.119,15.21,175.948,17.381,173.27,17.381z"/>
<polygon fill="#FFFFFF" points="498.19,80.816 495.351,80.816 496.77,72.516 501.684,72.516 "/>
</svg>
