<?xml version="1.0" encoding="utf-8"?>
<!-- Generator: Adobe Illustrator 15.0.0, SVG Export Plug-In  -->
<!DOCTYPE svg PUBLIC "-//W3C//DTD SVG 1.1//EN" "http://www.w3.org/Graphics/SVG/1.1/DTD/svg11.dtd" [
	<!ENTITY ns_flows "http://ns.adobe.com/Flows/1.0/">
]>
<svg version="1.1"
	 xmlns="http://www.w3.org/2000/svg" xmlns:xlink="http://www.w3.org/1999/xlink" xmlns:a="http://ns.adobe.com/AdobeSVGViewerExtensions/3.0/"
	 viewBox="0 0 169 168" width="169" height="168">
<path opacity="0.15" fill="#FFAF3C" d="M167.9,84c0,46.4-37.6,84-84,84c-46.4,0-84-37.6-84-84C0,37.6,37.6,0,84,0
	C130.3,0,167.9,37.6,167.9,84"/>
<path opacity="0.15" fill="#FFAF3C" d="M154.9,84c0,39.2-31.7,70.9-70.9,70.9c-39.2,0-70.9-31.7-70.9-70.9S44.8,13.1,84,13.1
	C123.1,13.1,154.9,44.8,154.9,84"/>
<g>
	<defs>
		<rect id="SVGID_1_" x="78" y="70.6" width="14.1" height="13.4"/>
	</defs>
	<clipPath id="SVGID_2_">
		<use xlink:href="#SVGID_1_"  overflow="visible"/>
	</clipPath>
	<polygon clip-path="url(#SVGID_2_)" fill="#FFFFFF" points="85,70.6 87.2,75 92,75.7 88.5,79.1 89.3,84 85,81.7 80.7,84 81.5,79.1 
		78,75.7 82.8,75 	"/>
</g>
<path fill="#EC8B2C" d="M139.5,84c0,30.7-24.9,55.6-55.6,55.6c-30.7,0-55.6-24.9-55.6-55.6c0-30.7,24.9-55.6,55.6-55.6
	C114.7,28.4,139.5,53.3,139.5,84"/>
<path fill="#DD7D26" d="M121,42.7c2,5.7,3.1,11.9,3.1,18.3c0,30.7-24.9,55.6-55.6,55.6c-14.3,0-27.2-5.4-37.1-14.3
	c7.6,21.7,28.2,37.3,52.4,37.3c30.7,0,55.6-24.9,55.6-55.6C139.5,67.6,132.4,52.9,121,42.7"/>
<path fill="#FFAF3C" d="M137.4,74.9c0.2-1.6,0.3-3.1,0.4-4.7c-5.4-21.3-23.2-37.7-45.3-41.1C76.3,32.4,63,46.4,60.6,64.8
	c-3,22.7,11.8,43.3,33,46.2C114.8,113.7,134.4,97.6,137.4,74.9"/>
<path fill="#F29E30" d="M133.5,58.9c-0.1,1.3-0.1,2.6-0.3,3.9c-3,22.7-22.6,38.8-43.8,36c-12.5-1.6-22.7-9.5-28.4-20.3
	c3.1,16.8,15.8,30.2,32.6,32.4c21.2,2.8,40.9-13.3,43.8-36c0.2-1.6,0.3-3.1,0.4-4.7C136.7,66.3,135.3,62.5,133.5,58.9"/>
<path fill="#EC8B2C" d="M85.9,46.5c0,5.9-4.8,10.7-10.7,10.7c-5.9,0-10.7-4.8-10.7-10.7c0-5.9,4.8-10.7,10.7-10.7
	C81.1,35.8,85.9,40.6,85.9,46.5"/>
<path fill="#DD7D26" d="M132.1,102.6c0,5.1-4.1,9.2-9.2,9.2c-5.1,0-9.2-4.1-9.2-9.2c0-5.1,4.1-9.2,9.2-9.2
	C128,93.3,132.1,97.5,132.1,102.6"/>
<path fill="#EC8B2C" d="M77.2,80.9c0,5.9-4.8,10.7-10.7,10.7c-5.9,0-10.7-4.8-10.7-10.7c0-5.9,4.8-10.7,10.7-10.7
	C72.4,70.2,77.2,75,77.2,80.9"/>
<path fill="#EC8B2C" d="M101.3,71.5c0,3.5-2.9,6.4-6.4,6.4c-3.5,0-6.4-2.9-6.4-6.4s2.9-6.4,6.4-6.4C98.4,65.1,101.3,68,101.3,71.5"
	/>
<path fill="#EC8B2C" d="M76,122.9c0,4.2-3.4,7.5-7.5,7.5c-4.2,0-7.6-3.4-7.6-7.5c0-4.2,3.4-7.5,7.6-7.5
	C72.7,115.4,76,118.7,76,122.9"/>
<path fill="#FFAF3C" d="M45.4,79.1c0,2.7-2.2,5-5,5c-2.7,0-5-2.2-5-5c0-2.7,2.2-5,5-5C43.2,74.1,45.4,76.3,45.4,79.1"/>
<path fill="#FFAF3C" d="M55.8,50.3c0,2.1-1.7,3.8-3.8,3.8c-2.1,0-3.8-1.7-3.8-3.8c0-2.1,1.7-3.8,3.8-3.8
	C54.1,46.5,55.8,48.2,55.8,50.3"/>
<path fill="#FFAF3C" d="M66.9,65.5H47.4c-1.6,0-2.9-1.3-2.9-2.9c0-1.6,1.3-2.9,2.9-2.9h19.5c1.6,0,2.9,1.3,2.9,2.9
	C69.8,64.2,68.5,65.5,66.9,65.5"/>
<path fill="#F29E30" d="M84.9,108.4H65.4c-1.6,0-2.9-1.3-2.9-2.9s1.3-2.9,2.9-2.9h19.5c1.6,0,2.9,1.3,2.9,2.9S86.5,108.4,84.9,108.4
	"/>
<path fill="#FFAF3C" d="M57.2,96.2H37.7c-1.6,0-2.9-1.3-2.9-2.9c0-1.6,1.3-2.9,2.9-2.9h19.5c1.6,0,2.9,1.3,2.9,2.9
	C60.2,94.9,58.9,96.2,57.2,96.2"/>
<path fill="#EC8B2C" d="M110.3,127.4H90.8c-1.6,0-2.9-1.3-2.9-2.9c0-1.6,1.3-2.9,2.9-2.9h19.5c1.6,0,2.9,1.3,2.9,2.9
	C113.2,126.1,111.9,127.4,110.3,127.4"/>
</svg>
