<?xml version="1.0" encoding="utf-8"?>
<!-- Generator: Adobe Illustrator 15.0.0, SVG Export Plug-In  -->
<!DOCTYPE svg PUBLIC "-//W3C//DTD SVG 1.1//EN" "http://www.w3.org/Graphics/SVG/1.1/DTD/svg11.dtd" [
	<!ENTITY ns_flows "http://ns.adobe.com/Flows/1.0/">
]>
<svg version="1.1"
	 xmlns="http://www.w3.org/2000/svg" xmlns:xlink="http://www.w3.org/1999/xlink" xmlns:a="http://ns.adobe.com/AdobeSVGViewerExtensions/3.0/"
	 x="0px" y="0px" width="172px" height="251px" viewBox="-0.3 -0.1 172 251"
	 overflow="visible" enable-background="new -0.3 -0.1 172 251" xml:space="preserve">
<defs>
</defs>
<path fill="#C5C5C5" d="M110.7,232.6h51.6c4.8,0,8.7,3.9,8.7,8.7h-60.3V232.6z"/>
<path fill="#A3A3A3" d="M110.7,241.3H171c0,4.8-3.9,8.7-8.7,8.7h-51.5V241.3z"/>
<path fill="#C5C5C5" d="M110.7,250H59.2c-4.8,0-8.7-3.9-8.7-8.7h60.2V250z"/>
<path fill="#FFFFFF" d="M110.7,241.3H50.5c0-4.8,3.9-8.7,8.7-8.7h51.6v8.7H110.7z"/>
<path fill="#EF4F4D" d="M72.4,211.7c0-21.2,17.1-38.3,38.3-38.3v38.3H72.4z"/>
<path fill="#A73935" d="M110.7,173.4c21.1,0,38.3,17.1,38.3,38.3h-38.3V173.4z"/>
<rect x="110.7" y="211.7" fill="#7F2D2D" width="38.3" height="20.9"/>
<rect x="72.4" y="211.7" fill="#A73935" width="38.3" height="20.9"/>
<circle fill="#FFFFFF" cx="141.4" cy="226.3" r="3.2"/>
<circle fill="#FFFFFF" cx="129.9" cy="226.3" r="3.2"/>
<circle fill="#FFFFFF" cx="118.3" cy="226.3" r="3.2"/>
<circle fill="#FFFFFF" cx="103.1" cy="226.3" r="3.2"/>
<circle fill="#FFFFFF" cx="91.6" cy="226.3" r="3.2"/>
<circle fill="#FFFFFF" cx="80" cy="226.3" r="3.2"/>
<polygon fill="#C5C5C5" points="122.7,85.2 125,82.8 68.9,30 44.6,41.6 46,44.6 68.3,34 "/>
<rect x="48.3" y="48.1" transform="matrix(-0.9025 0.4306 -0.4306 -0.9025 120.4947 93.1753)" fill="#A73935" width="2.8" height="24.3"/>
<path fill="#A73935" d="M69.1,104.2l55.2-26.3c4-1.9,8.8-0.2,10.7,3.8l-62.3,29.8L69.1,104.2z"/>
<path fill="#7F2D2D" d="M72.6,111.4l62.3-29.8c1.9,4,0.2,8.8-3.8,10.7L76,118.6L72.6,111.4z"/>
<path fill="#A73935" d="M36.8,36.5c4.8-2.3,10.5-0.3,12.8,4.5c2.3,4.8,0.3,10.5-4.5,12.8L36.8,36.5z"/>
<path fill="#C5C5C5" d="M125.1,150.5c7.3,15.2,0.9,33.5-14.4,40.8l-13.2-27.6L125.1,150.5z"/>
<path fill="#C5C5C5" d="M50.4,64.9c7.6-3.6,16.7-0.4,20.3,7.2l-13.7,6.6L50.4,64.9z"/>
<polygon fill="#C5C5C5" points="117.4,134.4 89.9,147.6 76,118.6 131.2,92.3 "/>
<polygon fill="#C5C5C5" points="74.1,79 60.3,85.6 69.1,104.2 100.3,89.3 "/>
<rect x="90.3" y="140.6" transform="matrix(-0.9024 0.4309 -0.4309 -0.9024 263.3253 230.3764)" fill="#A73935" width="30.6" height="8.9"/>
<polygon fill="#7F2D2D" points="97.5,163.7 125.1,150.5 121.3,142.5 93.7,155.6 "/>
<rect x="57.9" y="75.1" transform="matrix(-0.9024 0.4309 -0.4309 -0.9024 158.6661 121.9419)" fill="#A73935" width="15.2" height="7.7"/>
<polygon fill="#FFFFFF" points="20.8,133.9 17.3,134.1 11.6,57.3 35.9,45.7 37.4,48.8 15.2,59.4 "/>
<rect x="45.8" y="49.3" transform="matrix(-0.9024 0.431 -0.431 -0.9024 116.2108 96.5407)" fill="#EF4F4D" width="2.8" height="24.3"/>
<path fill="#EF4F4D" d="M69.1,104.2L14,130.5c-4,1.9-5.7,6.7-3.8,10.7l62.3-29.8L69.1,104.2L69.1,104.2z"/>
<path fill="#A73935" d="M72.6,111.4l-62.3,29.8c1.9,4,6.7,5.7,10.7,3.8L76,118.6L72.6,111.4L72.6,111.4z"/>
<path fill="#EF4F4D" d="M36.8,36.5c-4.8,2.3-6.8,8-4.5,12.8c2.3,4.8,8,6.8,12.8,4.5L36.8,36.5z"/>
<path fill="#FFFFFF" d="M70,176.8c7.3,15.2,25.5,21.7,40.8,14.4l-13.2-27.6L70,176.8z"/>
<path fill="#FFFFFF" d="M50.4,64.9c-7.6,3.6-10.8,12.7-7.2,20.3l13.7-6.6L50.4,64.9z"/>
<polygon fill="#FFFFFF" points="62.3,160.6 89.9,147.6 76,118.6 20.9,144.9 "/>
<polygon fill="#FFFFFF" points="46.5,92.2 60.3,85.6 69.1,104.2 38,119 "/>
<rect x="62.8" y="153.7" transform="matrix(-0.9024 0.4309 -0.4309 -0.9024 216.6692 267.205)" fill="#EF4F4D" width="30.6" height="8.9"/>
<rect x="66.5" y="161.8" transform="matrix(-0.9024 0.4309 -0.4309 -0.9024 227.3031 280.9834)" fill="#A73935" width="30.6" height="8.9"/>
<rect x="44.2" y="81.6" transform="matrix(-0.9024 0.4309 -0.4309 -0.9024 135.3427 140.3514)" fill="#EF4F4D" width="15.2" height="7.7"/>
<circle fill="#FFFFFF" cx="38.4" cy="43.7" r="4.3"/>
<path opacity="0.2" fill="#FFFFFF" enable-background="new    " d="M10.3,29.7c7.2-14.3,22.6-21.5,38.1-17.9
	c1.5,0.4,2.2,2.4,1.8,3.7c-0.6,1.6-2.2,2.2-3.7,1.8c-12.1-2.9-25.1,3.2-30.7,14.3C15,33.1,13.6,34,12,33.4
	C10.6,33,9.5,31.2,10.3,29.7L10.3,29.7z"/>
<path opacity="0.2" fill="#FFFFFF" enable-background="new    " d="M19.3,37.6c5.7-11.3,17.9-17,30.2-14.1c1.2,0.3,1.8,1.9,1.4,2.9
	c-0.4,1.3-1.7,1.7-2.9,1.4c-9.6-2.3-19.9,2.5-24.3,11.3c-0.6,1.2-1.7,1.9-2.9,1.4C19.5,40.2,18.7,38.8,19.3,37.6L19.3,37.6z"/>
<path opacity="0.2" fill="#FFFFFF" enable-background="new    " d="M0.2,25.4C4.7,16.1,12,8.6,21.4,4.1c9.3-4.4,20-5.1,30-2.7
	c1.5,0.4,2.2,2.4,1.8,3.7c-0.6,1.6-2.2,2.2-3.7,1.8c-17.5-4.3-36,4.3-43.9,20.5C5,28.8,3.6,29.7,2,29.1C0.5,28.6-0.4,26.9,0.2,25.4
	L0.2,25.4z"/>
</svg>
