<?xml version="1.0" encoding="utf-8"?>
<!-- Generator: Adobe Illustrator 15.0.0, SVG Export Plug-In  -->
<!DOCTYPE svg PUBLIC "-//W3C//DTD SVG 1.1//EN" "http://www.w3.org/Graphics/SVG/1.1/DTD/svg11.dtd" [
	<!ENTITY ns_flows "http://ns.adobe.com/Flows/1.0/">
]>
<svg version="1.1"
	 xmlns="http://www.w3.org/2000/svg" xmlns:xlink="http://www.w3.org/1999/xlink" xmlns:a="http://ns.adobe.com/AdobeSVGViewerExtensions/3.0/"
	 x="0px" y="0px" width="47px" height="79px" viewBox="0 0 47 79" overflow="visible" enable-background="new 0 0 47 79"
	 xml:space="preserve">
<defs>
</defs>
<rect x="13.9" y="4.2" fill="#EF4F4D" width="1" height="10.9"/>
<rect x="32.6" y="4.2" fill="#A73935" width="1" height="10.9"/>
<path fill="#EF4F4D" d="M17.2,28.2c0,0.4-0.3,0.7-0.7,0.7H5.8c-0.4,0-0.7-0.3-0.7-0.7v-7.9c0-0.4,0.3-0.7,0.7-0.7h10.7
	c0.4,0,0.7,0.3,0.7,0.7V28.2z"/>
<path fill="#A73935" d="M42.3,28.2c0,0.4-0.3,0.7-0.7,0.7H30.9c-0.4,0-0.7-0.3-0.7-0.7v-7.9c0-0.4,0.3-0.7,0.7-0.7h10.7
	c0.4,0,0.7,0.3,0.7,0.7V28.2z"/>
<path fill="#EF4F4D" d="M8.3,63.5v11.8c0,2.2,1.8,4,4,4V63.5H8.3z"/>
<path fill="#A73935" d="M12.3,63.5v15.8c2.2,0,4-1.8,4-4V63.5H12.3z"/>
<path fill="#EF4F4D" d="M31.1,63.5v11.8c0,2.2,1.8,4,4,4V63.5H31.1z"/>
<path fill="#A73935" d="M35.1,63.5v15.8c2.2,0,4-1.8,4-4V63.5H35.1z"/>
<path fill="#EF4F4D" d="M19.7,63.5v11.8c0,2.2,1.8,4,4,4V63.5H19.7z"/>
<path fill="#A73935" d="M23.7,63.5v15.8c2.2,0,4-1.8,4-4V63.5H23.7z"/>
<path fill="#FFFFFF" d="M4.3,39.4c-2,0-3.7,1.6-3.7,3.7s1.6,3.7,3.7,3.7V39.4z"/>
<rect x="23.7" y="33.5" fill="#A73935" width="15.4" height="5.2"/>
<rect x="23.7" y="29.6" fill="#2A2761" width="11.7" height="3.9"/>
<rect x="8.3" y="33.5" fill="#EF4F4D" width="15.4" height="5.2"/>
<rect x="23.7" y="38.7" fill="#C5C5C5" width="15.4" height="32.1"/>
<rect x="8.3" y="38.7" fill="#FFFFFF" width="15.4" height="32.1"/>
<rect x="12" y="29.6" fill="#3A3A77" width="11.7" height="3.9"/>
<path fill="#C5C5C5" d="M23.7,9.8v15.4v4.5h15.4v-4.5C39.1,16.6,32.2,9.8,23.7,9.8z"/>
<path fill="#FFFFFF" d="M8.3,25.1v4.5h15.4v-4.5V9.8C15.2,9.8,8.3,16.6,8.3,25.1z"/>
<circle opacity="0.2" cx="23.7" cy="54.7" r="11.7"/>
<path fill="#A73935" d="M32.3,54.7c0-4.7-3.8-8.6-8.6-8.6v8.6H32.3z"/>
<path fill="#EF4F4D" d="M23.7,46.2c-4.7,0-8.6,3.8-8.6,8.6h8.6V46.2z"/>
<path fill="#A73935" d="M15.1,54.7c0,4.7,3.8,8.6,8.6,8.6v-8.6H15.1z"/>
<path fill="#7F2D2D" d="M23.7,54.7v8.6c4.7,0,8.6-3.8,8.6-8.6H23.7z"/>
<path fill="#EF4F4D" d="M8.3,61.3c0,1.1-0.9,2-2,2l0,0c-1.1,0-2-0.9-2-2v-22c0-1.1,0.9-2,2-2l0,0c1.1,0,2,0.9,2,2V61.3z"/>
<path fill="#EF4F4D" d="M11,68.3c-0.9,0-1.6-0.7-1.6-1.6c0-1.7-1.4-3.1-3.1-3.1S3.2,65,3.2,66.7c0,0.9-0.7,1.6-1.6,1.6
	c-0.9,0-1.6-0.7-1.6-1.6c0-3.5,2.8-6.3,6.3-6.3c3.5,0,6.3,2.8,6.3,6.3C12.6,67.6,11.9,68.3,11,68.3z"/>
<path fill="#C5C5C5" d="M43.1,39.4c2,0,3.7,1.6,3.7,3.7s-1.6,3.7-3.7,3.7V39.4z"/>
<path fill="#A73935" d="M39.1,61.3c0,1.1,0.9,2,2,2l0,0c1.1,0,2-0.9,2-2v-22c0-1.1-0.9-2-2-2l0,0c-1.1,0-2,0.9-2,2V61.3z"/>
<path fill="#A73935" d="M45.8,68.3c-0.9,0-1.6-0.7-1.6-1.6c0-1.7-1.4-3.1-3.1-3.1S38,65,38,66.7c0,0.9-0.7,1.6-1.6,1.6
	s-1.6-0.7-1.6-1.6c0-3.5,2.8-6.3,6.3-6.3c3.5,0,6.3,2.8,6.3,6.3C47.4,67.6,46.7,68.3,45.8,68.3z"/>
<path fill="#57A6FF" d="M17.5,17.2c-2.5,0-4.6,2-4.6,4.6v7.9h10.8v-4.5v-7.9H17.5z"/>
<path fill="#3469D3" d="M29.9,17.2c2.5,0,4.6,2,4.6,4.6v7.9H23.7v-4.5v-7.9H29.9z"/>
<circle fill="#FFFFFF" cx="14.3" cy="2.4" r="2.4"/>
<circle fill="#C5C5C5" cx="33" cy="2.4" r="2.4"/>
<circle fill="#FFFFFF" cx="16.6" cy="21.3" r="1.6"/>
<circle fill="#FFFFFF" cx="22.8" cy="21.5" r="2.7"/>
</svg>
