<?xml version="1.0" encoding="utf-8"?>
<!-- Generator: Adobe Illustrator 15.0.0, SVG Export Plug-In  -->
<!DOCTYPE svg PUBLIC "-//W3C//DTD SVG 1.1//EN" "http://www.w3.org/Graphics/SVG/1.1/DTD/svg11.dtd" [
	<!ENTITY ns_flows "http://ns.adobe.com/Flows/1.0/">
]>
<svg version="1.1"
	 xmlns="http://www.w3.org/2000/svg" xmlns:xlink="http://www.w3.org/1999/xlink" xmlns:a="http://ns.adobe.com/AdobeSVGViewerExtensions/3.0/"
	 x="0px" y="0px" width="1154px" height="56px" viewBox="-0.345 -0.406 1154 56"
	 overflow="visible" enable-background="new -0.345 -0.406 1154 56" xml:space="preserve">
<defs>
</defs>
<path fill="#006D65" d="M11.275,0c6.227,0,11.275,4.161,11.275,9.296H0C0,4.161,5.049,0,11.275,0z"/>
<path fill="#006D65" d="M140.772,14.947c6.227,0,11.275,4.161,11.275,9.296h-22.551C129.497,19.108,134.546,14.947,140.772,14.947z"
	/>
<path fill="#006D65" d="M173.499,4.648c6.227,0,11.275,4.161,11.275,9.296h-22.551C162.223,8.81,167.272,4.648,173.499,4.648z"/>
<path fill="#006D65" d="M340.525,1.823c6.227,0,11.275,4.161,11.275,9.296H329.25C329.25,5.984,334.298,1.823,340.525,1.823z"/>
<path fill="#006D65" d="M821.485,16.771c6.227,0,11.275,4.161,11.275,9.296h-22.551C810.209,20.932,815.258,16.771,821.485,16.771z"
	/>
<path fill="#006D65" d="M854.211,6.472c6.227,0,11.275,4.161,11.275,9.296h-22.551C842.936,10.633,847.985,6.472,854.211,6.472z"/>
<path fill="#006D65" d="M980.035,1.823c6.227,0,11.275,4.161,11.275,9.296h-22.551C968.759,5.984,973.808,1.823,980.035,1.823z"/>
<path fill="#006D65" d="M1142.257,6.472c6.227,0,11.275,4.161,11.275,9.296h-22.551C1130.982,10.633,1136.031,6.472,1142.257,6.472z
	"/>
<path fill="#006D65" d="M421.637,45.908c6.227,0,11.275,4.161,11.275,9.296h-22.551C410.361,50.069,415.41,45.908,421.637,45.908z"
	/>
</svg>
