<?xml version="1.0" encoding="utf-8"?>
<!-- Generator: Adobe Illustrator 15.0.0, SVG Export Plug-In  -->
<!DOCTYPE svg PUBLIC "-//W3C//DTD SVG 1.1//EN" "http://www.w3.org/Graphics/SVG/1.1/DTD/svg11.dtd" [
	<!ENTITY ns_flows "http://ns.adobe.com/Flows/1.0/">
]>
<svg version="1.1"
	 xmlns="http://www.w3.org/2000/svg" xmlns:xlink="http://www.w3.org/1999/xlink" xmlns:a="http://ns.adobe.com/AdobeSVGViewerExtensions/3.0/"
	 x="0px" y="0px" width="267px" height="370px" viewBox="-0.493 -0.065 267 370"
	 overflow="visible" enable-background="new -0.493 -0.065 267 370" xml:space="preserve">
<defs>
</defs>
<path fill="#FFFFFF" d="M133.215,0c-14.897,0-79.65,102.969-79.65,182.618c0,79.65,32.378,124.983,32.378,124.983h47.272h47.274
	c0,0,32.375-45.333,32.375-124.983C212.865,102.969,148.106,0,133.215,0z"/>
<polygon fill="#FFFFFF" points="35.969,308.18 92.799,288.453 89.828,216.48 17.364,262.332 "/>
<polygon fill="#EF4F4D" points="49.827,369.678 54.751,349.285 17.364,262.332 0,272.782 "/>
<polygon fill="#FFFFFF" points="230.462,308.18 173.633,288.453 176.604,216.48 249.069,262.332 "/>
<path fill="#F8AB1F" d="M133.215,0c-6.767,0-23.816,21.247-40.417,51.89c11.852,5.291,25.66,8.334,40.417,8.334
	c14.75,0,28.564-3.043,40.418-8.334C157.031,21.247,139.975,0,133.215,0z"/>
<polygon fill="#EF4F4D" points="216.604,369.678 211.68,349.285 249.069,262.332 266.424,272.782 "/>
<polygon fill="#EF4F4D" points="133.215,307.602 85.943,307.602 85.943,328.47 133.215,328.47 180.49,328.47 180.49,307.602 "/>
<path fill="#D89829" d="M188.683,355.988l-8.193-27.519h-47.274H85.943l-8.196,27.519h0.271c0.292,4.956,24.883,8.955,55.198,8.955
	c30.315,0,54.907-3.999,55.199-8.955H188.683z"/>
<path fill="#EF4F4D" d="M133.215,236.169H58.709c5.129,25.887,13.074,45.203,19.076,57.187h55.43h55.432
	c5.993-11.983,13.946-31.3,19.074-57.187H133.215z"/>
<path fill="#424242" d="M155.951,102.627c0.007,11.964-9.697,21.668-21.667,21.668c-11.968,0-21.672-9.704-21.668-21.668
	c0.002-11.97,9.706-21.672,21.668-21.669C146.247,80.958,155.951,90.662,155.951,102.627"/>
<path fill="#26C6DA" d="M148.954,102.627c0,8.102-6.565,14.671-14.671,14.671c-8.101,0.003-14.67-6.569-14.672-14.671
	c0.002-8.102,6.57-14.671,14.673-14.675C142.388,87.956,148.958,94.525,148.954,102.627"/>
<path fill="#BDBDBD" d="M135.593,84.452c0,0.724-0.584,1.309-1.31,1.309c-0.725,0-1.312-0.585-1.313-1.312
	c0.002-0.725,0.588-1.309,1.311-1.309C135.009,83.14,135.593,83.729,135.593,84.452"/>
<path fill="#BDBDBD" d="M148.064,90.702c-0.512,0.512-1.343,0.512-1.855-0.006c-0.512-0.51-0.509-1.335,0.004-1.848
	c0.514-0.512,1.335-0.512,1.846,0C148.574,89.361,148.576,90.187,148.064,90.702"/>
<path fill="#BDBDBD" d="M152.459,103.938c-0.725,0-1.312-0.587-1.312-1.311s0.592-1.313,1.312-1.312
	c0.727-0.002,1.311,0.585,1.31,1.312C153.774,103.345,153.183,103.938,152.459,103.938"/>
<path fill="#BDBDBD" d="M146.208,116.403c-0.512-0.51-0.512-1.337,0.004-1.852c0.511-0.512,1.337-0.512,1.85,0
	c0.512,0.512,0.516,1.342,0.003,1.852C147.549,116.92,146.72,116.917,146.208,116.403"/>
<path fill="#BDBDBD" d="M132.972,120.804c0-0.728,0.587-1.311,1.311-1.311c0.723,0,1.31,0.583,1.31,1.311
	c0.001,0.72-0.585,1.311-1.31,1.311C133.559,122.112,132.972,121.523,132.972,120.804"/>
<path fill="#BDBDBD" d="M120.509,114.552c0.512-0.512,1.334-0.512,1.846,0c0.515,0.512,0.516,1.342,0.005,1.852
	c-0.514,0.514-1.344,0.514-1.856,0C119.99,115.894,119.995,115.066,120.509,114.552"/>
<path fill="#BDBDBD" d="M116.104,101.313c0.728,0.006,1.313,0.59,1.313,1.313c0.003,0.724-0.585,1.312-1.311,1.312
	c-0.72-0.002-1.306-0.589-1.313-1.312C114.794,101.903,115.383,101.313,116.104,101.313"/>
<path fill="#BDBDBD" d="M122.359,88.849c0.511,0.513,0.512,1.338-0.004,1.854c-0.512,0.512-1.339,0.512-1.851,0
	c-0.515-0.516-0.511-1.341,0-1.854C121.021,88.337,121.843,88.331,122.359,88.849"/>
<path fill="#424242" d="M164.343,188.24c0,16.602-13.457,30.06-30.06,30.063c-16.603-0.006-30.058-13.462-30.061-30.06
	c0-16.606,13.458-30.061,30.061-30.061S164.34,171.638,164.343,188.24"/>
<path fill="#26C6DA" d="M154.637,188.244c0,11.239-9.114,20.349-20.352,20.352c-11.243-0.003-20.355-9.112-20.352-20.352
	c-0.003-11.244,9.109-20.356,20.35-20.351C145.526,167.888,154.637,176.997,154.637,188.244"/>
<path fill="#BDBDBD" d="M136.103,163.03c-0.002,1.002-0.818,1.819-1.818,1.819c-1.003,0-1.819-0.817-1.819-1.819
	c-0.002-1.001,0.815-1.82,1.818-1.82C135.285,161.213,136.101,162.029,136.103,163.03"/>
<path fill="#BDBDBD" d="M153.397,171.7c-0.71,0.709-1.863,0.709-2.573,0c-0.708-0.709-0.708-1.862,0.002-2.571
	c0.708-0.709,1.863-0.712,2.571-0.003C154.108,169.836,154.104,170.991,153.397,171.7"/>
<path fill="#BDBDBD" d="M159.496,190.06c-1.003,0-1.82-0.814-1.819-1.822c-0.001-1.001,0.815-1.816,1.817-1.816
	c1.002,0.002,1.819,0.821,1.82,1.819C161.314,189.245,160.498,190.062,159.496,190.06"/>
<path fill="#BDBDBD" d="M150.826,207.352c-0.71-0.705-0.709-1.855,0.003-2.564c0.71-0.712,1.856-0.712,2.568-0.005
	c0.707,0.711,0.711,1.864,0,2.573C152.687,208.064,151.534,208.064,150.826,207.352"/>
<path fill="#BDBDBD" d="M132.463,213.451c0-1.002,0.813-1.813,1.819-1.82c1.002,0,1.818,0.818,1.818,1.82
	c0,1.008-0.813,1.823-1.817,1.819C133.277,215.274,132.46,214.459,132.463,213.451"/>
<path fill="#BDBDBD" d="M115.169,204.784c0.712-0.709,1.861-0.709,2.571,0c0.709,0.709,0.712,1.862,0.001,2.571
	c-0.709,0.709-1.863,0.709-2.574,0C114.46,206.646,114.461,205.493,115.169,204.784"/>
<path fill="#BDBDBD" d="M109.071,186.423c1.004,0,1.82,0.819,1.823,1.821c-0.007,1.001-0.819,1.813-1.821,1.818
	c-1.005,0-1.822-0.814-1.819-1.818C107.253,187.239,108.066,186.423,109.071,186.423"/>
<path fill="#BDBDBD" d="M117.741,169.129c0.711,0.709,0.711,1.864,0.001,2.571c-0.71,0.713-1.861,0.709-2.571,0
	c-0.71-0.712-0.71-1.859,0.001-2.571C115.881,168.42,117.03,168.417,117.741,169.129"/>
<path fill="#80DEEA" d="M147.867,173.103l-28.731,28.729c-0.889-0.983-1.685-2.06-2.368-3.217l27.884-27.884
	C145.809,171.415,146.881,172.212,147.867,173.103"/>
<path fill="#80DEEA" d="M154.468,185.661l-22.768,22.771c-3.621-0.456-6.945-1.864-9.707-3.957l28.518-28.519
	C152.6,178.723,154.011,182.045,154.468,185.661"/>
<path fill="#80DEEA" d="M140.265,89.241l-19.373,19.365c-0.435-0.935-0.762-1.935-0.977-2.97l17.375-17.372
	C138.323,88.481,139.327,88.805,140.265,89.241"/>
<path fill="#80DEEA" d="M147.255,95.766l-19.83,19.831c-2.049-1.076-3.803-2.631-5.122-4.518l20.437-20.438
	C144.623,91.974,146.17,93.726,147.255,95.766"/>
</svg>
