<?xml version="1.0" encoding="utf-8"?>
<!-- Generator: Adobe Illustrator 15.0.0, SVG Export Plug-In  -->
<!DOCTYPE svg PUBLIC "-//W3C//DTD SVG 1.1//EN" "http://www.w3.org/Graphics/SVG/1.1/DTD/svg11.dtd" [
	<!ENTITY ns_flows "http://ns.adobe.com/Flows/1.0/">
]>
<svg version="1.1"
	 xmlns="http://www.w3.org/2000/svg" xmlns:xlink="http://www.w3.org/1999/xlink" xmlns:a="http://ns.adobe.com/AdobeSVGViewerExtensions/3.0/"
	 x="0px" y="0px" width="104px" height="87px" viewBox="-0.3 0 104 87" overflow="visible" enable-background="new -0.3 0 104 87"
	 xml:space="preserve">
<defs>
</defs>
<path fill="#3469D3" d="M59.4,45.1l-8.7,6.5c-0.8,0.6-1.9,0.4-2.5-0.4l11.6-8.7C60.3,43.4,60.2,44.5,59.4,45.1z"/>
<path fill="#57A6FF" d="M48.2,51.2c-0.6-0.8-0.4-1.9,0.4-2.5l8.7-6.5c0.8-0.6,1.9-0.4,2.5,0.4L48.2,51.2z"/>
<path fill="#57A6FF" d="M79.1,80.5l-2.8-3.7l-0.8-1.1l3.7-2.8l0.8,1.1C81.6,76.1,81.2,79,79.1,80.5z"/>
<path fill="#3469D3" d="M72.6,79.6l-0.8-1.1l3.7-2.8l0.8,1.1l2.8,3.7C77.1,82.1,74.2,81.6,72.6,79.6z"/>
<path fill="#C5C5C5" d="M71.9,78.4c-1.5,1.1-3.5,0.8-4.6-0.7l-4.9-6.6l6.2-4.7l3.5,4.6l3.5,4.6L71.9,78.4z"/>
<path fill="#FFFFFF" d="M79.1,73c1.5-1.1,1.8-3.2,0.7-4.6l-4.9-6.6l-6.2,4.7l3.5,4.6l3.5,4.6L79.1,73z"/>
<path fill="#FFFFFF" d="M65,51.6c1.9-1.5,4.7-1.1,6.2,0.9l6.6,8.8l-8.3,6.2l-4.6-6.2l-4.6-6.1L65,51.6z"/>
<path fill="#C5C5C5" d="M55.4,58.8c-1.9,1.5-2.3,4.2-0.9,6.2l6.6,8.8l8.3-6.2l-4.6-6.2l-4.6-6.1L55.4,58.8z"/>
<path fill="#7F2D2D" d="M68.6,66.5l1.8,2.5c-3.4,2.6-4.2,5.1-4.5,7.6c-0.2,1.7-1.7,2.8-3.3,2.7c0.1-1.6,0.3-3.1,0.3-3.1
	C63.3,72.8,64.6,69.5,68.6,66.5z"/>
<path fill="#A73935" d="M68.6,66.5c-4,3-5.3,6.3-5.7,9.6c0,0-0.2,1.4-0.3,3.1c0,0-0.1,0-0.1,0c-0.9-0.1-1.6-0.6-2.1-1.2
	c-0.5-0.6-0.7-1.4-0.6-2.2c0.4-3.1,1.5-7.7,6.9-11.7L68.6,66.5z"/>
<path fill="#A73935" d="M68.6,66.5l1.8,2.5c3.4-2.6,6.1-2.6,8.5-2.2c1.6,0.3,3.2-0.8,3.5-2.4c-1.6-0.3-3-0.6-3-0.6
	C76.2,63.2,72.6,63.4,68.6,66.5z"/>
<path fill="#EF4F4D" d="M68.6,66.5c4-3,7.6-3.3,10.8-2.7c0,0,1.4,0.2,3,0.6c0,0,0-0.1,0-0.1c0.1-0.9-0.1-1.7-0.6-2.3
	c-0.5-0.6-1.1-1.1-2-1.2c-3.1-0.5-7.8-0.7-13.2,3.3L68.6,66.5z"/>
<rect x="55.3" y="47.8" transform="matrix(-0.5995 -0.8003 0.8003 -0.5995 55.0411 128.1611)" fill="#EF4F4D" width="8.6" height="4.9"/>
<rect x="51.3" y="50.8" transform="matrix(-0.5996 -0.8003 0.8003 -0.5996 46.3816 129.73)" fill="#A73935" width="8.6" height="4.9"/>
<path fill="#57A6FF" d="M43.4,41.9l8.7-6.5c0.8-0.6,1.9-0.4,2.5,0.4L43,44.4C42.4,43.6,42.6,42.5,43.4,41.9z"/>
<path fill="#3469D3" d="M54.6,35.7c0.6,0.8,0.4,1.9-0.4,2.5l-8.7,6.5c-0.8,0.6-1.9,0.4-2.5-0.4L54.6,35.7z"/>
<path fill="#3469D3" d="M23.6,6.4l2.8,3.7l0.8,1.1L23.5,14l-0.8-1.1C21.1,10.9,21.6,8,23.6,6.4z"/>
<path fill="#57A6FF" d="M30.1,7.3L31,8.4l-3.7,2.8l-0.8-1.1l-2.8-3.7C25.7,4.9,28.6,5.3,30.1,7.3z"/>
<path fill="#FFFFFF" d="M30.8,8.5c1.5-1.1,3.5-0.8,4.6,0.7l4.9,6.6l-6.2,4.7l-3.5-4.6l-3.5-4.6L30.8,8.5z"/>
<path fill="#C5C5C5" d="M23.6,13.9c-1.5,1.1-1.8,3.2-0.7,4.6l4.9,6.6l6.2-4.7l-3.5-4.6l-3.5-4.6L23.6,13.9z"/>
<path fill="#C5C5C5" d="M37.8,35.3c-1.9,1.5-4.7,1.1-6.2-0.9L25,25.6l8.3-6.2l4.6,6.2l4.6,6.1L37.8,35.3z"/>
<path fill="#FFFFFF" d="M47.4,28.1c1.9-1.5,2.3-4.2,0.9-6.2l-6.6-8.8l-8.3,6.2l4.6,6.2l4.6,6.1L47.4,28.1z"/>
<path fill="#EF4F4D" d="M34.2,20.5L32.3,18c3.4-2.6,4.2-5.1,4.5-7.6c0.2-1.7,1.7-2.8,3.3-2.7c-0.1,1.6-0.3,3.1-0.3,3.1
	C39.4,14.1,38.2,17.4,34.2,20.5z"/>
<path fill="#A73935" d="M34.2,20.5c4-3,5.3-6.3,5.7-9.6c0,0,0.2-1.4,0.3-3.1c0,0,0.1,0,0.1,0c0.9,0.1,1.6,0.6,2.1,1.2
	c0.5,0.6,0.7,1.4,0.6,2.2c-0.4,3.1-1.5,7.7-6.9,11.7L34.2,20.5z"/>
<path fill="#A73935" d="M34.2,20.5L32.3,18c-3.4,2.6-6.1,2.6-8.5,2.2c-1.6-0.3-3.2,0.8-3.5,2.4c1.6,0.3,3,0.6,3,0.6
	C26.6,23.7,30.1,23.5,34.2,20.5z"/>
<path fill="#7F2D2D" d="M34.2,20.5c-4,3-7.6,3.3-10.8,2.7c0,0-1.4-0.2-3-0.6c0,0,0,0.1,0,0.1c-0.1,0.9,0.1,1.7,0.6,2.3
	c0.5,0.6,1.1,1.1,2,1.2c3.1,0.5,7.8,0.7,13.2-3.3L34.2,20.5z"/>
<rect x="38.9" y="34.2" transform="matrix(0.5996 0.8003 -0.8003 0.5996 46.5956 -19.8908)" fill="#A73935" width="8.6" height="4.9"/>
<rect x="42.8" y="31.2" transform="matrix(0.5995 0.8003 -0.8003 0.5995 45.8154 -24.2261)" fill="#EF4F4D" width="8.6" height="4.9"/>
<rect x="50.9" y="39.5" transform="matrix(-0.5994 -0.8004 0.8004 -0.5994 51.7206 109.8625)" fill="#FFFFFF" width="5" height="4.9"/>
<rect x="46.9" y="42.5" transform="matrix(-0.5997 -0.8003 0.8003 -0.5997 43.0722 111.4324)" fill="#C5C5C5" width="5" height="4.9"/>
<path fill="#FFFFFF" d="M0.8,63c-0.8,0.6-1,1.8-0.4,2.7l15.3,20.5c0.6,0.8,1.8,1,2.7,0.4l29.5-22.1c0.8-0.6,1-1.8,0.4-2.7L32.9,41.3
	c-0.6-0.8-1.8-1-2.7-0.4L0.8,63z"/>
<rect x="37.2" y="58.2" transform="matrix(-0.5995 -0.8003 0.8003 -0.5995 16.0754 132.4694)" fill="#57A6FF" width="8" height="8"/>
<rect x="31.8" y="51.1" transform="matrix(-0.5996 -0.8003 0.8003 -0.5996 13.2463 116.8297)" fill="#57A6FF" width="8" height="8"/>
<rect x="26.5" y="44" transform="matrix(-0.5997 -0.8003 0.8003 -0.5997 10.4213 101.19)" fill="#57A6FF" width="8" height="8"/>
<rect x="29.5" y="63.9" transform="matrix(-0.5996 -0.8003 0.8003 -0.5996 -0.804 135.5274)" fill="#57A6FF" width="8" height="8"/>
<rect x="24.2" y="56.8" transform="matrix(-0.5996 -0.8003 0.8003 -0.5996 -3.6363 119.8857)" fill="#57A6FF" width="8" height="8"/>
<rect x="18.8" y="49.7" transform="matrix(-0.5996 -0.8003 0.8003 -0.5996 -6.4652 104.2448)" fill="#57A6FF" width="8" height="8"/>
<rect x="21.8" y="69.7" transform="matrix(-0.5995 -0.8004 0.8004 -0.5995 -17.698 138.577)" fill="#57A6FF" width="8" height="8"/>
<rect x="16.5" y="62.6" transform="matrix(-0.5995 -0.8004 0.8004 -0.5995 -20.5241 122.9372)" fill="#57A6FF" width="8" height="8"/>
<rect x="11.1" y="55.5" transform="matrix(-0.5995 -0.8004 0.8004 -0.5995 -23.3541 107.2965)" fill="#57A6FF" width="8" height="8"/>
<rect x="14.1" y="75.4" transform="matrix(-0.5995 -0.8004 0.8004 -0.5995 -34.5794 141.6302)" fill="#57A6FF" width="8" height="8"/>
<rect x="8.8" y="68.3" transform="matrix(-0.5996 -0.8003 0.8003 -0.5996 -37.4021 125.9974)" fill="#57A6FF" width="8" height="8"/>
<rect x="3.5" y="61.2" transform="matrix(-0.5995 -0.8004 0.8004 -0.5995 -40.2371 110.3519)" fill="#57A6FF" width="8" height="8"/>
<rect x="48.5" y="52.2" transform="matrix(-0.5994 -0.8004 0.8004 -0.5994 34.1815 129.9577)" fill="#7F2D2D" width="2.2" height="8.5"/>
<rect x="37.4" y="37.3" transform="matrix(-0.5998 -0.8002 0.8002 -0.5998 28.2764 97.1918)" fill="#7F2D2D" width="2.2" height="8.5"/>
<path fill="#FFFFFF" d="M102,23.9c0.8-0.6,1-1.8,0.4-2.7L87,0.8c-0.6-0.8-1.8-1-2.7-0.4L54.9,22.5c-0.8,0.6-1,1.8-0.4,2.7l15.3,20.5
	c0.6,0.8,1.8,1,2.7,0.4L102,23.9z"/>
<rect x="57.6" y="20.7" transform="matrix(0.5995 0.8004 -0.8004 0.5995 44.4487 -39.3878)" fill="#57A6FF" width="8" height="8"/>
<rect x="62.9" y="27.8" transform="matrix(0.5996 0.8003 -0.8003 0.5996 52.2671 -40.8026)" fill="#57A6FF" width="8" height="8"/>
<rect x="68.2" y="34.9" transform="matrix(0.5996 0.8003 -0.8003 0.5996 60.0926 -42.2189)" fill="#57A6FF" width="8" height="8"/>
<rect x="65.2" y="14.9" transform="matrix(0.5996 0.8003 -0.8003 0.5996 42.9133 -47.8336)" fill="#57A6FF" width="8" height="8"/>
<rect x="70.6" y="22.1" transform="matrix(0.5997 0.8002 -0.8002 0.5997 50.7252 -49.2452)" fill="#57A6FF" width="8" height="8"/>
<rect x="75.9" y="29.2" transform="matrix(0.5996 0.8003 -0.8003 0.5996 58.5635 -50.6656)" fill="#57A6FF" width="8" height="8"/>
<rect x="72.9" y="9.2" transform="matrix(0.5996 0.8003 -0.8003 0.5996 41.3836 -56.2803)" fill="#57A6FF" width="8" height="8"/>
<rect x="78.2" y="16.3" transform="matrix(0.5996 0.8003 -0.8003 0.5996 49.212 -57.698)" fill="#57A6FF" width="8" height="8"/>
<rect x="83.6" y="23.4" transform="matrix(0.5997 0.8003 -0.8003 0.5997 57.0279 -59.1106)" fill="#57A6FF" width="8" height="8"/>
<rect x="80.6" y="3.4" transform="matrix(0.5996 0.8003 -0.8003 0.5996 39.8554 -64.7279)" fill="#57A6FF" width="8" height="8"/>
<rect x="85.9" y="10.6" transform="matrix(0.5995 0.8004 -0.8004 0.5995 47.6873 -66.148)" fill="#57A6FF" width="8" height="8"/>
<rect x="91.3" y="17.7" transform="matrix(0.5995 0.8004 -0.8004 0.5995 55.5207 -67.5661)" fill="#57A6FF" width="8" height="8"/>
<rect x="52.1" y="26.2" transform="matrix(0.5994 0.8004 -0.8004 0.5994 45.7098 -30.3237)" fill="#A73935" width="2.2" height="8.5"/>
<rect x="63.2" y="41.1" transform="matrix(0.5997 0.8002 -0.8002 0.5997 62.0812 -33.2903)" fill="#A73935" width="2.2" height="8.5"/>
</svg>
