<?xml version="1.0" encoding="utf-8"?>
<!-- Generator: Adobe Illustrator 15.0.0, SVG Export Plug-In  -->
<!DOCTYPE svg PUBLIC "-//W3C//DTD SVG 1.1//EN" "http://www.w3.org/Graphics/SVG/1.1/DTD/svg11.dtd" [
	<!ENTITY ns_flows "http://ns.adobe.com/Flows/1.0/">
]>
<svg version="1.1"
	 xmlns="http://www.w3.org/2000/svg" xmlns:xlink="http://www.w3.org/1999/xlink" xmlns:a="http://ns.adobe.com/AdobeSVGViewerExtensions/3.0/"
	 x="0px" y="0px" width="78px" height="51px" viewBox="-0.2 -0.4 78 51"
	 overflow="visible" enable-background="new -0.2 -0.4 78 51" xml:space="preserve">
<defs>
</defs>
<path fill="#7F60A6" d="M15.8,37.4C22.5,49.7,37.8,54.2,50,47.5c12.2-6.7,16.6-22.1,9.9-34.3C53.1,0.9,37.8-3.6,25.6,3.1
	C13.4,9.8,9,25.2,15.8,37.4"/>
<path fill="#6F5599" d="M14,16.9c0.5,2.7,1.4,5.4,2.8,8c6.7,12.3,22.1,16.8,34.3,10.1c5.7-3.1,9.6-8.1,11.6-13.8
	c1.8,10.3-3,21-12.6,26.3c-12.2,6.7-27.5,2.2-34.3-10.1C12.1,30.9,11.8,23.4,14,16.9"/>
<path fill="#B8A3E4" d="M14.6,33.3c-0.4-0.6-0.8-1.2-1.2-1.8c-2.5-9.7,0.9-20.1,9-26.3c7.1-2.2,15.5,0.5,20.5,7.3
	c6.2,8.4,4.8,19.9-3,25.6C32.1,43.9,20.8,41.7,14.6,33.3"/>
<path fill="#A693D8" d="M12.6,26.1c0.3,0.5,0.6,1,1,1.5c6.2,8.4,17.5,10.6,25.3,4.8c4.6-3.4,6.9-8.7,6.8-14.3
	c2.4,7.4,0.3,15.5-5.8,20.1c-7.8,5.7-19.1,3.6-25.3-4.8c-0.4-0.6-0.8-1.2-1.2-1.8C13,29.7,12.7,27.9,12.6,26.1"/>
<path fill="#7F60A6" d="M32.6,8.1L41,5.3c0.7-0.2,1.1-1,0.8-1.7l0,0c-0.2-0.7-1-1.1-1.7-0.8l-8.4,2.8c-0.7,0.2-1.1,1-0.8,1.7l0,0
	C31.2,7.9,31.9,8.3,32.6,8.1"/>
<path fill="#7F60A6" d="M24.7,21.8l8.4-2.8c0.7-0.2,1.1-1,0.8-1.7l0,0c-0.2-0.7-1-1.1-1.7-0.8l-8.4,2.8c-0.7,0.2-1.1,1-0.8,1.7l0,0
	C23.3,21.6,24,22,24.7,21.8"/>
<path fill="#7F60A6" d="M40.3,22l8.4-2.8c0.7-0.2,1.1-1,0.8-1.7l0,0c-0.2-0.7-1-1.1-1.7-0.8l-8.4,2.8c-0.7,0.2-1.1,1-0.8,1.7l0,0
	C38.9,21.9,39.6,22.2,40.3,22"/>
<path fill="#6F5599" d="M21.5,41.8l8.7-1.4c0.7-0.1,1.2-0.8,1.1-1.5l0,0c-0.1-0.7-0.8-1.2-1.5-1.1l-8.7,1.4
	c-0.7,0.1-1.2,0.8-1.1,1.5l0,0C20.1,41.5,20.8,42,21.5,41.8"/>
<path fill="#B8A3E4" d="M50.1,24.2l8.4-2.8c0.7-0.2,1.1-1,0.8-1.7l0,0c-0.2-0.7-1-1.1-1.7-0.8l-8.4,2.8c-0.7,0.2-1.1,1-0.8,1.7l0,0
	C48.7,24.1,49.4,24.4,50.1,24.2"/>
<path fill="#7F60A6" d="M47.8,41.6l8.4-2.8c0.7-0.2,1.1-1,0.8-1.7l0,0c-0.2-0.7-1-1.1-1.7-0.8L47,39.1c-0.7,0.2-1.1,1-0.8,1.7l0,0
	C46.4,41.5,47.1,41.9,47.8,41.6"/>
<path fill="#B8A3E4" d="M37.6,13.1c1.3,2.3,4.2,3.2,6.5,1.9c2.3-1.3,3.1-4.2,1.9-6.5c-1.3-2.3-4.2-3.2-6.5-1.9
	C37.2,7.8,36.4,10.7,37.6,13.1"/>
<path fill="#A693D8" d="M41.7,33.8c0.8,1.5,2.6,2,4.1,1.2c1.5-0.8,2-2.6,1.2-4.1c-0.8-1.5-2.6-2-4.1-1.2
	C41.4,30.6,40.9,32.4,41.7,33.8"/>
<path fill="#B8A3E4" d="M49.4,12c0.7,1.2,2.2,1.6,3.3,1c1.2-0.7,1.6-2.2,1-3.4c-0.7-1.2-2.2-1.6-3.3-1C49.2,9.3,48.7,10.8,49.4,12"
	/>
<path fill="#B8A3E4" d="M53,26.4c0.4,0.7,1.2,0.9,1.9,0.5c0.7-0.4,0.9-1.2,0.5-1.9c-0.4-0.7-1.2-0.9-1.9-0.5
	C52.8,24.8,52.6,25.7,53,26.4"/>
<path fill="#7F60A6" d="M37.4,45.3c0.9,1.6,2.8,2.1,4.4,1.3c1.6-0.9,2.1-2.8,1.3-4.4c-0.9-1.6-2.8-2.1-4.4-1.3
	C37.1,41.8,36.6,43.8,37.4,45.3"/>
<path fill="#C8DCE8" d="M12.2,26.9c-2.4,1.4-3.6,2.7-3.4,3.7C9.5,33.8,23,33.4,39,29.9c16-3.5,28.4-8.9,27.7-12
	c-0.2-1-1.8-1.7-4.4-2c8.4-0.2,14.1,1,14.7,3.6c1.1,4.7-15.3,12.4-36.5,17C19.2,41.3,1.1,41.2,0,36.4C-0.5,33.8,4.2,30.3,12.2,26.9"
	/>
<path fill="#B4CEDB" d="M12.2,26.9c0,0-8.3,4.3-7.8,7.1c0.4,2.8,4.8,6.3,28.9,1.7c24.1-4.6,36.5-10.3,38.8-14.8
	c2.2-4.1-8-4.9-9.5-4.9c8.3-0.2,13.8,1,14.4,3.6c1.1,4.7-15.3,12.4-36.5,17C19.2,41.3,1.1,41.2,0,36.4C-0.5,33.8,4.2,30.3,12.2,26.9
	"/>
</svg>
