<?xml version="1.0" encoding="utf-8"?>
<!-- Generator: Adobe Illustrator 15.0.0, SVG Export Plug-In . SVG Version: 6.00 Build 0)  -->
<!DOCTYPE svg PUBLIC "-//W3C//DTD SVG 1.1//EN" "http://www.w3.org/Graphics/SVG/1.1/DTD/svg11.dtd">
<svg version="1.1" id="圖層_1" xmlns="http://www.w3.org/2000/svg" xmlns:xlink="http://www.w3.org/1999/xlink" x="0px" y="0px"
	 width="412px" height="272px" viewBox="-0.5 0 412 272" enable-background="new -0.5 0 412 272" xml:space="preserve">
<g>
	<rect x="234.8" y="109.1" fill="#EF4F4D" width="9.601" height="67.601"/>
	<rect x="162.9" y="109.1" fill="#EF4F4D" width="9.6" height="67.601"/>
	<rect x="132" y="166.1" fill="#A5A5A5" width="147" height="52.101"/>
	<rect x="262.5" y="159.6" fill="#7B65BF" width="8.601" height="65.101"/>
	<rect x="248.8" y="159.6" fill="#7B65BF" width="8.7" height="65.101"/>
	<rect x="235.2" y="159.6" fill="#7B65BF" width="8.6" height="65.101"/>
	<rect x="221.601" y="159.6" fill="#7B65BF" width="8.699" height="65.101"/>
	<rect x="208" y="159.6" fill="#7B65BF" width="8.601" height="65.101"/>
	<rect x="194.4" y="159.6" fill="#7B65BF" width="8.7" height="65.101"/>
	<rect x="180.8" y="159.6" fill="#7B65BF" width="8.6" height="65.101"/>
	<rect x="167.1" y="159.6" fill="#7B65BF" width="8.7" height="65.101"/>
	<rect x="153.5" y="159.6" fill="#7B65BF" width="8.7" height="65.101"/>
	<rect x="139.9" y="159.6" fill="#7B65BF" width="8.6" height="65.101"/>
	<path fill="#FFFFFF" d="M135.9,0.8c-3.9,0-7.1,3.2-7.1,7.1v94.2c0,3.9,3.2,7.1,7.1,7.1h135.7c3.899,0,7.1-3.2,7.1-7.1V7.9
		c0-3.9-3.2-7.1-7.1-7.1H135.9z"/>
	<polygon fill="#C5C5C5" points="132.4,228 138.9,221.5 189.4,272 176.3,272 	"/>
	<polygon fill="#AAAAAA" points="59.3,228 52.8,221.5 2.3,272 15.4,272 	"/>
	<polygon fill="#C5C5C5" points="100.5,272 91.3,272 91.3,200.6 100.5,209.8 	"/>
	<polygon fill="#57A6FF" points="93,109.1 98.8,109.1 98.8,154.1 93,148.3 	"/>
	<circle fill="#EF4F4D" cx="135.2" cy="157.5" r="8.6"/>
	<circle fill="#EF4F4D" cx="56.5" cy="157.5" r="8.6"/>
	<path fill="#FFFFFF" d="M150.5,195.3c0,30.2-24.5,54.7-54.7,54.7V140.6C126.1,140.6,150.5,165.1,150.5,195.3z"/>
	<path fill="#C5C5C5" d="M95.9,140.6v109.3c-30.2,0-54.7-24.5-54.7-54.699C41.2,165.1,65.7,140.6,95.9,140.6z"/>
	<path fill="#57A6FF" d="M95.9,190.3h54.4c0.1,1.6,0.3,3.3,0.3,5c0,11.8-3.8,22.8-10.2,31.7H95.9V190.3z"/>
	<path fill="#3469D3" d="M95.9,227H51.4c-6.4-9-10.2-19.9-10.2-31.7c0-1.7,0.1-3.3,0.3-5h54.4V227z"/>
	<rect x="95.9" y="195.3" fill="#FFFFFF" width="23.7" height="26.8"/>
	<rect x="72.2" y="195.3" fill="#C5C5C5" width="23.7" height="26.8"/>
	<circle fill="#EF4F4D" cx="95.9" cy="208.6" r="8"/>
	<circle fill="#57A6FF" cx="95.9" cy="168.2" r="8.6"/>
	<circle fill="#EF4F4D" cx="95.9" cy="107.4" r="7"/>
	<path fill="#3469D3" d="M172,272c0-5.3,4.3-9.5,9.5-9.5v9.5H172z"/>
	<path fill="#57A6FF" d="M181.5,262.5c5.3,0,9.5,4.3,9.5,9.5h-9.5V262.5z"/>
	<path fill="#3469D3" d="M86.4,272c0-5.3,4.3-9.5,9.5-9.5v9.5H86.4z"/>
	<path fill="#57A6FF" d="M95.9,262.5c5.3,0,9.5,4.3,9.5,9.5h-9.5V262.5z"/>
	<path fill="#3469D3" d="M0.7,272c0-5.3,4.3-9.5,9.5-9.5v9.5H0.7z"/>
	<path fill="#57A6FF" d="M10.2,262.5c5.3,0,9.5,4.3,9.5,9.5h-9.5V262.5z"/>
	<path fill="#FFFFFF" d="M132.4,202.6c0,3.101,2.5,5.7,5.7,5.7c3.2,0,5.7-2.5,5.7-5.7c0-3.1-2.5-5.7-5.7-5.7
		C134.9,196.899,132.4,199.5,132.4,202.6z"/>
	<circle fill="#FFFFFF" cx="134.7" cy="214.8" r="3.4"/>
	<polygon fill="#E0E0E0" points="351.7,228 358.2,221.5 408.7,272 395.601,272 	"/>
	<polygon fill="#AAAAAA" points="278.601,228 272.101,221.5 221.601,272 234.7,272 	"/>
	<polygon fill="#C5C5C5" points="319.8,272 310.5,272 310.5,200.6 319.8,209.8 	"/>
	<polygon fill="#57A6FF" points="312.2,109.1 318,109.1 318,154.1 312.2,148.3 	"/>
	<circle fill="#EF4F4D" cx="354.5" cy="157.5" r="8.6"/>
	<circle fill="#EF4F4D" cx="275.8" cy="157.5" r="8.6"/>
	<path fill="#FFFFFF" d="M369.8,195.3c0,30.2-24.5,54.7-54.699,54.7V140.6C345.3,140.6,369.8,165.1,369.8,195.3z"/>
	<path fill="#C5C5C5" d="M315.101,140.6v109.3c-30.2,0-54.7-24.5-54.7-54.699C260.5,165.1,284.9,140.6,315.101,140.6z"/>
	<path fill="#57A6FF" d="M315.101,190.3H369.5c0.101,1.6,0.2,3.3,0.2,5c0,11.8-3.8,22.8-10.2,31.7H315v-36.7H315.101z"/>
	<path fill="#3469D3" d="M315.101,227h-44.4c-6.4-9-10.2-19.9-10.2-31.7c0-1.7,0.101-3.3,0.2-5h54.4V227z"/>
	<rect x="315.101" y="195.3" fill="#FFFFFF" width="23.699" height="26.8"/>
	<rect x="291.4" y="195.3" fill="#C5C5C5" width="23.7" height="26.8"/>
	<circle fill="#EF4F4D" cx="315.101" cy="208.6" r="8"/>
	<circle fill="#57A6FF" cx="315.101" cy="168.2" r="8.6"/>
	<circle fill="#EF4F4D" cx="315.101" cy="107.4" r="7"/>
	<path fill="#3469D3" d="M391.3,272c0-5.3,4.301-9.5,9.5-9.5v9.5H391.3z"/>
	<path fill="#57A6FF" d="M400.8,262.5c5.301,0,9.5,4.3,9.5,9.5h-9.5V262.5z"/>
	<path fill="#3469D3" d="M305.601,272c0-5.3,4.3-9.5,9.5-9.5v9.5H305.601z"/>
	<path fill="#57A6FF" d="M315.101,262.5c5.3,0,9.5,4.3,9.5,9.5h-9.5V262.5z"/>
	<path fill="#3469D3" d="M220,272c0-5.3,4.3-9.5,9.5-9.5v9.5H220z"/>
	<path fill="#57A6FF" d="M229.5,262.5c5.3,0,9.5,4.3,9.5,9.5h-9.5V262.5z"/>
	<path fill="#FFFFFF" d="M351.7,202.6c0,3.101,2.5,5.7,5.7,5.7s5.7-2.5,5.7-5.7c0-3.1-2.5-5.7-5.7-5.7S351.7,199.5,351.7,202.6z"/>
	<circle fill="#FFFFFF" cx="354" cy="214.8" r="3.4"/>
	<rect x="241.9" y="72.9" fill="#B8A3E4" width="29.6" height="29.6"/>
	<rect x="241.9" y="40.2" fill="#B8A3E4" width="29.6" height="29.6"/>
	<rect x="241.9" y="7.4" fill="#B8A3E4" width="29.6" height="29.6"/>
	<rect x="206.6" y="72.9" fill="#B8A3E4" width="29.601" height="29.6"/>
	<rect x="206.6" y="40.2" fill="#B8A3E4" width="29.601" height="29.6"/>
	<rect x="206.6" y="7.4" fill="#B8A3E4" width="29.601" height="29.6"/>
	<rect x="171.3" y="72.9" fill="#8773D8" width="29.6" height="29.6"/>
	<rect x="171.3" y="40.2" fill="#8773D8" width="29.6" height="29.6"/>
	<rect x="171.3" y="7.4" fill="#8773D8" width="29.6" height="29.6"/>
	<rect x="135.9" y="72.9" fill="#8773D8" width="29.6" height="29.6"/>
	<rect x="135.9" y="40.2" fill="#8773D8" width="29.6" height="29.6"/>
	<rect x="135.9" y="7.4" fill="#8773D8" width="29.6" height="29.6"/>
</g>
</svg>
