<?xml version="1.0" encoding="utf-8"?>
<!-- Generator: Adobe Illustrator 15.0.0, SVG Export Plug-In . SVG Version: 6.00 Build 0)  -->
<!DOCTYPE svg PUBLIC "-//W3C//DTD SVG 1.1//EN" "http://www.w3.org/Graphics/SVG/1.1/DTD/svg11.dtd">
<svg version="1.1" id="圖層_1" xmlns="http://www.w3.org/2000/svg" xmlns:xlink="http://www.w3.org/1999/xlink"
	 width="270px" height="240px" viewBox="0 0 270 240">
<g>
	<rect x="131.076" y="25.54" fill="#2A2761" width="5.345" height="23.433"/>
	<rect x="115.031" y="70.558" fill="#3A3A77" width="37.241" height="57.56"/>
	<path fill="#FFAF3B" d="M111.725,59.182h43.947c6.325,0,11.381,5.056,11.381,11.376H100.35
		C100.35,64.238,105.406,59.182,111.725,59.182z"/>
	<path fill="#FF771B" d="M167.053,70.558c0,6.319-5.056,11.375-11.381,11.375h-43.947c-6.319,0-11.375-5.056-11.375-11.375H167.053z
		"/>
	<path fill="#FFAF3B" d="M111.725,92.726h43.947c6.325,0,11.381,5.055,11.381,11.378H100.35
		C100.35,97.781,105.406,92.726,111.725,92.726z"/>
	<path fill="#FF771B" d="M167.053,104.104c0,6.319-5.056,11.375-11.381,11.375h-43.947c-6.319,0-11.375-5.056-11.375-11.375H167.053
		z"/>
	<path fill="#57A6FF" d="M115.031,59.182c0-10.306,8.362-18.668,18.669-18.668v18.668H115.031z"/>
	<path fill="#3469D3" d="M133.7,40.514c10.304,0,18.666,8.362,18.666,18.668H133.7V40.514z"/>
	<circle fill="#FFAF3B" cx="133.7" cy="20.579" r="10.113"/>
	<circle fill="#FFFFFF" cx="131.076" cy="17.566" r="3.5"/>
	<path fill="#AAAAAA" d="M190.581,230.604h48.812c0-58.344-47.355-105.693-105.693-105.693l0,0
		C165.104,125.008,190.581,172.261,190.581,230.604z"/>
	<path fill="#FFFFFF" d="M133.7,125.008L133.7,125.008c-58.338,0-105.69,47.253-105.69,105.69h48.809
		C76.819,172.261,102.292,125.008,133.7,125.008z"/>
	<path fill="#C5C5C5" d="M190.581,230.604c0-58.344-25.477-105.693-56.881-105.693v105.693H190.581z"/>
	<path fill="#E0E0E0" d="M133.7,125.008c-31.408,0-56.881,47.253-56.881,105.69H133.7V125.008z"/>
	<path fill="#EF4F4D" d="M250.184,230.604H17.313c-7.487,0-13.613,6.026-13.613,13.61h260
		C263.7,236.727,257.673,230.604,250.184,230.604z"/>
	<rect x="87.515" y="212.904" fill="#FFFFFF" width="17.209" height="9.531"/>
	<rect x="110.657" y="212.904" fill="#FFFFFF" width="8.651" height="9.531"/>
	<path fill="#57A6FF" d="M117.559,190.832c3.868,0,7.001,3.137,7.001,7.005c0,3.86-3.133,6.998-7.001,6.998
		c-3.865,0-7.001-3.138-7.001-6.998C110.558,193.969,113.694,190.832,117.559,190.832z"/>
	<path fill="#57A6FF" d="M117.559,170.804c3.868,0,7.001,3.136,7.001,7.003c0,3.862-3.133,6.999-7.001,6.999
		c-3.865,0-7.001-3.137-7.001-6.999C110.558,173.939,113.694,170.804,117.559,170.804z"/>
	<path fill="#57A6FF" d="M117.559,150.773c3.868,0,7.001,3.137,7.001,6.999c0,3.867-3.133,7.004-7.001,7.004
		c-3.865,0-7.001-3.137-7.001-7.004C110.558,153.91,113.694,150.773,117.559,150.773z"/>
	<path fill="#FFFFFF" d="M156.163,205.905c0,3.307-2.727,5.934-5.933,5.934l0,0c-3.307,0-5.934-2.727-5.934-5.934v-44.143
		c0-3.306,2.728-5.934,5.934-5.934l0,0c3.306,0,5.933,2.721,5.933,5.934V205.905z"/>
</g>
</svg>
