<?xml version="1.0" encoding="utf-8"?>
<!-- Generator: Adobe Illustrator 15.0.0, SVG Export Plug-In  -->
<!DOCTYPE svg PUBLIC "-//W3C//DTD SVG 1.1//EN" "http://www.w3.org/Graphics/SVG/1.1/DTD/svg11.dtd" [
	<!ENTITY ns_flows "http://ns.adobe.com/Flows/1.0/">
]>
<svg version="1.1"
	 xmlns="http://www.w3.org/2000/svg" xmlns:xlink="http://www.w3.org/1999/xlink" xmlns:a="http://ns.adobe.com/AdobeSVGViewerExtensions/3.0/"
	 x="0px" y="0px" width="250px" height="130px" viewBox="-0.6 -0.5 250 130"
	 overflow="visible" enable-background="new -0.6 -0.5 250 130" xml:space="preserve">
<defs>
</defs>
<polygon fill="#FFFFFF" points="47.9,0 50.5,8.5 59,11 50.5,13.6 47.9,22.1 45.4,13.6 36.9,11 45.4,8.5 "/>
<polygon fill="#FFFFFF" points="11,76 13.6,84.5 22.1,87 13.6,89.6 11,98.1 8.5,89.6 0,87 8.5,84.5 "/>
<polygon fill="#FFFFFF" points="237.8,63.6 240.4,72.1 248.9,74.7 240.4,77.2 237.8,85.7 235.3,77.2 226.8,74.7 235.3,72.1 "/>
<polygon fill="#FFFFFF" points="120.9,51.3 122.4,56 127.1,57.5 122.4,58.9 120.9,63.6 119.5,58.9 114.8,57.5 119.5,56 "/>
<polygon fill="#FFFFFF" points="177.9,74.7 179.3,79.4 184,80.9 179.3,82.3 177.9,87 176.5,82.3 171.7,80.9 176.5,79.4 "/>
<polygon fill="#FFFFFF" points="79.6,47 80.8,51.1 84.8,52.2 80.8,53.4 79.6,57.5 78.4,53.4 74.4,52.2 78.4,51.1 "/>
<polygon fill="#FFFFFF" points="106.6,97.2 107.8,101.2 111.8,102.4 107.8,103.6 106.6,107.6 105.4,103.6 101.4,102.4 105.4,101.2 
	"/>
<polygon fill="#FFFFFF" points="66,118.4 67.2,122.5 71.2,123.7 67.2,124.8 66,128.9 64.8,124.8 60.8,123.7 64.8,122.5 "/>
<polygon fill="#FFFFFF" points="128.4,19.2 129.6,23.3 133.6,24.4 129.6,25.6 128.4,29.7 127.2,25.6 123.2,24.4 127.2,23.3 "/>
</svg>
