<?xml version="1.0" encoding="utf-8"?>
<!-- Generator: Adobe Illustrator 15.0.0, SVG Export Plug-In  -->
<!DOCTYPE svg PUBLIC "-//W3C//DTD SVG 1.1//EN" "http://www.w3.org/Graphics/SVG/1.1/DTD/svg11.dtd" [
	<!ENTITY ns_flows "http://ns.adobe.com/Flows/1.0/">
]>
<svg version="1.1"
	 xmlns="http://www.w3.org/2000/svg" xmlns:xlink="http://www.w3.org/1999/xlink" xmlns:a="http://ns.adobe.com/AdobeSVGViewerExtensions/3.0/"
	 x="0px" y="0px" width="200px" height="78px" viewBox="0 0 200 78" overflow="visible" enable-background="new 0 0 200 78"
	 xml:space="preserve">
<defs>
</defs>
<circle fill="#FFFFFF" cx="1.1" cy="46.5" r="1"/>
<circle fill="#FFFFFF" cx="26.5" cy="64" r="0.5"/>
<circle fill="#FFFFFF" cx="28.4" cy="0.5" r="0.5"/>
<circle fill="#FFFFFF" cx="10.7" cy="5.9" r="0.5"/>
<circle fill="#FFFFFF" cx="89.3" cy="49.9" r="0.5"/>
<circle fill="#FFFFFF" cx="102.9" cy="31.4" r="0.5"/>
<circle fill="#FFFFFF" cx="20.9" cy="38.4" r="0.5"/>
<circle fill="#FFFFFF" cx="75.4" cy="8.4" r="0.5"/>
<circle fill="#FFFFFF" cx="0.5" cy="77.8" r="0.5"/>
<circle fill="#FFFFFF" cx="15.8" cy="58.5" r="0.3"/>
<circle fill="#FFFFFF" cx="28.9" cy="22.6" r="0.5"/>
<circle fill="#FFFFFF" cx="41" cy="4" r="0.5"/>
<circle fill="#FFFFFF" cx="53.4" cy="54.4" r="0.5"/>
<circle fill="#FFFFFF" cx="68.4" cy="64.4" r="0.3"/>
<circle fill="#FFFFFF" cx="90.3" cy="8.8" r="0.3"/>
<circle fill="#FFFFFF" cx="12.5" cy="70.6" r="0.3"/>
<circle fill="#FFFFFF" cx="191.7" cy="59.7" r="0.8"/>
<circle fill="#FFFFFF" cx="191.3" cy="28.6" r="0.4"/>
<circle fill="#FFFFFF" cx="164.4" cy="43.3" r="0.4"/>
<circle fill="#FFFFFF" cx="199.6" cy="50.7" r="0.4"/>
<circle fill="#FFFFFF" cx="141.9" cy="10.1" r="0.4"/>
<circle fill="#FFFFFF" cx="111.7" cy="20.2" r="0.4"/>
<circle fill="#FFFFFF" cx="116.8" cy="53" r="0.4"/>
<circle fill="#FFFFFF" cx="178.8" cy="38.9" r="0.4"/>
<circle fill="#FFFFFF" cx="59.8" cy="40.7" r="0.4"/>
<circle fill="#FFFFFF" cx="194.6" cy="12.2" r="0.4"/>
<circle fill="#FFFFFF" cx="199.1" cy="33.3" r="0.3"/>
<circle fill="#FFFFFF" cx="152.2" cy="22.6" r="0.4"/>
<circle fill="#FFFFFF" cx="136.9" cy="24.3" r="0.4"/>
<circle fill="#FFFFFF" cx="164" cy="24.6" r="0.3"/>
<circle fill="#FFFFFF" cx="122.3" cy="18.3" r="0.4"/>
<circle fill="#FFFFFF" cx="146" cy="64" r="0.4"/>
<circle fill="#FFFFFF" cx="50.5" cy="22.6" r="0.3"/>
<circle fill="#FFFFFF" cx="176.9" cy="9.4" r="0.3"/>
</svg>
